<svg width="5500" height="1300" viewBox="0 0 5500 1300" fill="none" xmlns="http://www.w3.org/2000/svg">
<path d="M1867.5 175.226H2111.18V972.214H2320.08V175.226H2572.75V5.45312H1931.16L1867.5 175.226Z" fill="#FEFEFE"/>
<path d="M2643.04 115.392C2643.04 83.118 2654.32 55.9277 2676.86 33.822C2699.41 11.274 2726.6 0 2758.43 0C2790.27 0 2817.46 11.274 2840 33.822C2862.55 55.9277 2873.83 83.118 2873.83 115.392C2873.83 147.225 2862.55 174.194 2840 196.3C2817.46 218.405 2790.27 229.458 2758.43 229.458C2726.6 229.458 2699.41 218.405 2676.86 196.3C2654.32 174.194 2643.04 147.225 2643.04 115.392Z" fill="#FEFEFE"/>
<path d="M2862.55 972.214H2655.05V287.818H2862.55V972.214Z" fill="#FEFEFE"/>
<path d="M2995.85 972.214H3198.78V587.573C3198.78 547.783 3209.39 515.286 3230.61 490.086C3251.84 464.886 3278.81 452.283 3311.52 452.283C3343.8 452.283 3368.77 463.78 3386.47 486.77C3404.13 509.316 3413 540.706 3413 580.94V972.214H3615.27V587.573C3615.27 547.783 3625.87 515.286 3647.1 490.086C3668.77 464.886 3696.17 452.283 3729.33 452.283C3761.6 452.283 3786.57 463.78 3804.27 486.77C3822.4 509.316 3831.47 540.706 3831.47 580.94V972.214H4033.73V556.403C4033.73 467.096 4012.5 397.463 3970.07 347.503C3928.07 297.544 3868.13 272.564 3790.33 272.564C3676.27 272.564 3600.23 308.818 3562.2 381.326C3530.8 308.818 3468.9 272.564 3376.5 272.564C3335.4 272.564 3298.7 281.849 3266.43 300.418C3234.59 318.986 3212.05 343.303 3198.78 373.366V287.817H2995.85V972.214Z" fill="#FEFEFE"/>
<path fill-rule="evenodd" clip-rule="evenodd" d="M4133.2 633.993V628.69C4133.2 521.697 4168.13 435.263 4237.97 369.387C4306.93 303.071 4395.6 269.912 4503.9 269.912C4607.37 269.912 4692.03 303.513 4757.9 370.713C4823.33 437.473 4856.07 519.707 4856.07 617.417C4856.07 633.773 4855.17 655.657 4853.4 683.07H4335.47C4337.67 723.743 4355.13 756.46 4387.87 781.22C4421 805.537 4464.33 817.693 4517.83 817.693C4581.93 817.693 4637.63 795.367 4684.97 750.713L4803 863.453C4722.1 947.013 4623.93 988.793 4508.57 988.793C4397.13 988.793 4306.5 956.517 4236.67 891.97C4167.67 826.977 4133.2 740.987 4133.2 633.993ZM4338.77 551.097H4652.47C4652.47 519.267 4637.87 492.297 4608.7 470.19C4579.97 448.083 4545.03 437.033 4503.9 437.033C4460.13 437.033 4422.33 448.083 4390.5 470.19C4358.67 492.297 4341.43 519.267 4338.77 551.097Z" fill="#FEFEFE"/>
<path d="M5016.53 744.08L4899.83 868.757C4966.13 950.55 5065.63 991.447 5198.27 991.447C5296.4 991.447 5371.13 970.887 5422.4 929.77C5474.13 888.654 5500 832.284 5500 760.66C5500 668.7 5443.83 603.93 5331.57 566.35C5303.27 556.184 5271.2 546.457 5235.4 537.17C5200.03 527.444 5179.03 521.254 5172.4 518.604C5161.77 514.18 5154.27 509.317 5149.83 504.014C5145.87 498.264 5143.87 490.97 5143.87 482.127C5143.87 468.864 5149.83 458.254 5161.77 450.297C5173.7 442.337 5190.5 438.357 5212.17 438.357C5271.87 438.357 5319.83 455.16 5356.1 488.76L5452.23 355.46C5390.8 296.66 5312.53 267.26 5217.5 267.26C5142.77 267.26 5079.77 286.713 5028.47 325.619C4976.77 363.2 4950.9 417.137 4950.9 487.434C4950.9 577.624 5003.5 641.07 5108.73 677.764C5137.9 687.05 5168.63 695.45 5200.9 702.964C5237.6 711.364 5265.23 720.427 5283.8 730.154C5299.27 738.114 5307 749.167 5307 763.314C5307 800.45 5272.53 819.02 5203.57 819.02C5165.1 819.02 5129.07 812.167 5095.47 798.464C5061.87 784.757 5035.57 766.63 5016.53 744.08Z" fill="#FEFEFE"/>
<path d="M1830.36 5.45312L1768.46 175.226H1721.31C1687.7 175.227 1661.99 181.49 1646.07 194.311C1630.6 207.133 1622.86 227.912 1622.86 256.65V287.819H1762.79V470.854H1625.51V972.214H1429.88V470.854H1227.61V972.214H1031.97V470.854H919.233V287.819H1031.97V268.587C1031.97 170.437 1055.63 102.572 1102.93 64.9923C1150.24 26.086 1213.02 6.63289 1291.27 6.63289C1315.59 6.63289 1342.78 8.84349 1372.84 13.2646V181.711C1360.91 177.29 1342.34 175.079 1317.14 175.079C1284.86 175.079 1261.43 181.49 1246.84 194.311C1232.25 207.133 1224.96 227.912 1224.96 256.65V287.819H1429.88V268.587C1429.88 170.879 1453.97 103.014 1502.16 64.9923C1550.8 26.086 1638.63 5.45369 1721.31 5.45369L1830.36 5.45312Z" fill="#FEFEFE"/>
<path d="M222.827 972.214H0L391.273 25.8652H576.96L968.233 972.214H745.407H748.133L486.4 290.766L210.521 972.214H222.827Z" fill="#FEFEFE"/>
</svg>
