<svg width="5500" height="1300" viewBox="0 0 5500 1300" fill="none" xmlns="http://www.w3.org/2000/svg">
<path d="M1867.5 175.226H2111.18V972.214H2320.08V175.226H2572.75V5.45312H1931.16L1867.5 175.226Z" fill="#0A0A1F"/>
<path d="M2643.04 115.392C2643.04 83.118 2654.32 55.9277 2676.86 33.822C2699.41 11.274 2726.6 0 2758.43 0C2790.27 0 2817.46 11.274 2840 33.822C2862.55 55.9277 2873.83 83.118 2873.83 115.392C2873.83 147.225 2862.55 174.194 2840 196.3C2817.46 218.405 2790.27 229.458 2758.43 229.458C2726.6 229.458 2699.41 218.405 2676.86 196.3C2654.32 174.194 2643.04 147.225 2643.04 115.392Z" fill="#0A0A1F"/>
<path d="M2862.55 972.216H2655.05V287.82H2862.55V972.216Z" fill="#0A0A1F"/>
<path d="M2995.85 972.212H3198.78V587.572C3198.78 547.782 3209.39 515.285 3230.61 490.085C3251.84 464.885 3278.81 452.281 3311.52 452.281C3343.8 452.281 3368.77 463.778 3386.47 486.768C3404.13 509.314 3413 540.705 3413 580.939V972.212H3615.27V587.572C3615.27 547.782 3625.87 515.285 3647.1 490.085C3668.77 464.885 3696.17 452.281 3729.33 452.281C3761.6 452.281 3786.57 463.778 3804.27 486.768C3822.4 509.314 3831.47 540.705 3831.47 580.939V972.212H4033.73V556.402C4033.73 467.095 4012.5 397.461 3970.07 347.501C3928.07 297.542 3868.13 272.562 3790.33 272.562C3676.27 272.562 3600.23 308.816 3562.2 381.324C3530.8 308.816 3468.9 272.562 3376.5 272.562C3335.4 272.562 3298.7 281.848 3266.43 300.417C3234.59 318.985 3212.05 343.302 3198.78 373.365V287.815H2995.85V972.212Z" fill="#0A0A1F"/>
<path fill-rule="evenodd" clip-rule="evenodd" d="M4133.2 633.991V628.688C4133.2 521.695 4168.13 435.261 4237.97 369.385C4306.93 303.069 4395.6 269.91 4503.9 269.91C4607.37 269.91 4692.03 303.511 4757.9 370.711C4823.33 437.471 4856.07 519.705 4856.07 617.415C4856.07 633.771 4855.17 655.655 4853.4 683.068H4335.47C4337.67 723.741 4355.13 756.458 4387.87 781.218C4421 805.535 4464.33 817.691 4517.83 817.691C4581.93 817.691 4637.63 795.365 4684.97 750.711L4803 863.451C4722.1 947.011 4623.93 988.791 4508.57 988.791C4397.13 988.791 4306.5 956.515 4236.67 891.968C4167.67 826.975 4133.2 740.985 4133.2 633.991ZM4338.77 551.095H4652.47C4652.47 519.265 4637.87 492.295 4608.7 470.188C4579.97 448.081 4545.03 437.031 4503.9 437.031C4460.13 437.031 4422.33 448.081 4390.5 470.188C4358.67 492.295 4341.43 519.265 4338.77 551.095Z" fill="#0A0A1F"/>
<path d="M5016.53 744.078L4899.83 868.755C4966.13 950.548 5065.63 991.445 5198.27 991.445C5296.4 991.445 5371.13 970.885 5422.4 929.768C5474.13 888.652 5500 832.282 5500 760.658C5500 668.698 5443.83 603.928 5331.57 566.348C5303.27 556.182 5271.2 546.455 5235.4 537.168C5200.03 527.442 5179.03 521.252 5172.4 518.602C5161.77 514.178 5154.27 509.315 5149.83 504.012C5145.87 498.262 5143.87 490.968 5143.87 482.125C5143.87 468.862 5149.83 458.252 5161.77 450.295C5173.7 442.335 5190.5 438.355 5212.17 438.355C5271.87 438.355 5319.83 455.158 5356.1 488.758L5452.23 355.458C5390.8 296.658 5312.53 267.258 5217.5 267.258C5142.77 267.258 5079.77 286.711 5028.47 325.617C4976.77 363.198 4950.9 417.135 4950.9 487.432C4950.9 577.622 5003.5 641.068 5108.73 677.762C5137.9 687.048 5168.63 695.448 5200.9 702.962C5237.6 711.362 5265.23 720.425 5283.8 730.152C5299.27 738.112 5307 749.165 5307 763.312C5307 800.448 5272.53 819.018 5203.57 819.018C5165.1 819.018 5129.07 812.165 5095.47 798.462C5061.87 784.755 5035.57 766.628 5016.53 744.078Z" fill="#0A0A1F"/>
<path d="M1830.36 5.45312L1768.46 175.226H1721.31C1687.7 175.227 1661.99 181.49 1646.07 194.311C1630.6 207.133 1622.86 227.912 1622.86 256.65V287.819H1762.79V470.854H1625.51V972.214H1429.88V470.854H1227.61V972.214H1031.97V470.854H919.233V287.819H1031.97V268.587C1031.97 170.437 1055.63 102.572 1102.93 64.9923C1150.24 26.086 1213.02 6.63289 1291.27 6.63289C1315.59 6.63289 1342.78 8.84349 1372.84 13.2646V181.711C1360.91 177.29 1342.34 175.079 1317.14 175.079C1284.86 175.079 1261.43 181.49 1246.84 194.311C1232.25 207.133 1224.96 227.912 1224.96 256.65V287.819H1429.88V268.587C1429.88 170.879 1453.97 103.014 1502.16 64.9923C1550.8 26.086 1638.63 5.45369 1721.31 5.45369L1830.36 5.45312Z" fill="#0A0A1F"/>
<path d="M222.827 972.212H0L391.273 25.8633H576.96L968.233 972.212H745.407H748.133L486.4 290.764L210.521 972.212H222.827Z" fill="#0A0A1F"/>
</svg>
