<svg width="5000" height="1300" viewBox="0 0 5000 1300" fill="none" xmlns="http://www.w3.org/2000/svg">
<path d="M484.375 0H500C500 27.4089 500.065 54.8177 500 82.2917C428.841 82.1615 357.812 100.651 295.834 135.612C223.242 176.302 163.347 239.127 126.172 313.607C97.2657 371.159 82.1615 435.546 82.2917 499.935C54.8828 500.065 27.4089 499.935 0 500V484.505C1.82292 438.281 9.2448 392.317 23.4375 348.242C58.5286 237.369 133.919 140.104 232.096 77.8646C307.162 29.7526 395.378 3.0599 484.375 0Z" fill="#0A0A1F"/>
<path d="M526.823 415.169C655.664 286.719 784.766 158.463 913.737 30.0781C933.072 49.5442 952.409 69.0104 971.81 88.4765C941.927 118.164 912.109 147.981 882.161 177.604C919.076 221.289 948.633 271.289 968.489 324.87C1006.97 427.669 1010.09 543.164 977.474 647.917C956.576 715.3 921.094 777.994 874.349 830.729C827.409 883.854 769.141 926.888 704.493 955.99C616.341 995.898 516.341 1008.98 420.768 993.424C313.542 976.367 212.76 922.721 138.021 843.946C125.976 855.924 113.998 868.034 101.888 880.013C88.3464 822.917 75 765.756 61.5234 708.658C118.685 722.07 175.781 735.547 232.943 749.023C220.703 761.328 208.399 773.503 196.159 785.807C248.893 841.861 317.188 883.073 391.537 903.06C491.406 930.468 601.432 918.49 693.034 870.052C765.365 832.226 826.237 772.721 865.625 701.237C912.044 617.968 927.865 518.555 910.742 424.804C898.437 355.795 867.904 290.234 823.373 236.133C795.703 263.671 767.969 291.146 740.365 318.75C773.633 362.695 794.661 415.82 799.805 470.703C806.185 534.701 791.277 600.651 757.812 655.534C724.024 711.588 671.615 756.184 610.677 780.079C557.356 801.302 497.786 806.771 441.471 795.507C380.469 783.529 323.502 751.823 280.925 706.446C280.144 705.924 278.646 704.817 277.865 704.297C267.188 714.388 257.161 725.13 246.615 735.287C246.29 735.156 245.703 734.961 245.443 734.831C231.901 678.19 218.685 621.485 205.338 564.844C262.5 578.256 319.596 591.732 376.823 605.143C363.412 618.62 349.869 632.031 336.458 645.507C372.201 685.743 423.177 712.175 476.823 717.708C529.232 723.503 583.594 709.245 626.432 678.516C673.633 645.247 706.836 592.708 715.95 535.612C725.196 480.99 712.696 423.112 681.445 377.344C649.219 409.374 617.057 441.536 584.766 473.503C591.146 494.206 590.17 517.188 580.924 536.979C568.685 564.323 541.797 584.374 512.044 588.216C485.873 591.927 458.334 583.269 439.192 565.104C419.596 547.136 408.984 520.117 411.068 493.62C412.76 465.365 429.102 438.607 453.321 423.959C475 410.352 502.474 407.422 526.823 415.169Z" fill="#0A0A1F"/>
<path d="M1326.95 281.926C1362.11 261.027 1403.12 251.717 1443.75 250.871C1484.5 249.699 1526.18 256.99 1562.43 276.261C1594.8 293.579 1623.18 319.295 1641.27 351.391C1654.36 374.373 1661.65 400.48 1663.61 426.782C1628.38 426.651 1593.16 426.912 1558.01 426.651C1553.38 401.131 1539.98 376.651 1518.62 361.548C1491.92 342.016 1456.84 338.175 1424.94 343.253C1386.07 349.373 1353.65 378.214 1337.04 413.045C1323.82 441.756 1319.34 473.722 1318.42 505.103C1318.42 545.337 1325.26 587.459 1348.43 621.313C1365.43 647.029 1392.52 666.3 1423.18 671.443C1455.01 676.456 1490.43 673.332 1516.86 653.345C1544.41 632.511 1556.19 597.225 1559.83 564.087C1595.57 563.566 1631.32 564.022 1666.99 563.826C1662.96 610.897 1647.72 658.358 1616.79 694.751C1593.29 723.657 1560.42 744.36 1524.68 754.516C1488.28 764.998 1449.74 766.886 1412.24 762.655C1370.7 757.967 1330.14 742.212 1297.85 715.389C1264.51 688.24 1239.71 651.066 1225.97 610.441C1213.15 572.55 1209.11 532.251 1210.62 492.472C1212.24 448.657 1222.85 404.777 1244.92 366.691C1264.85 332.381 1292.52 301.978 1326.95 281.926Z" fill="#0A0A1F"/>
<path d="M2283.21 261.68C2320.31 262.07 2357.35 261.419 2394.41 262.005C2456.32 425.677 2518.62 589.219 2580.59 752.891C2543.88 753.02 2507.16 752.956 2470.44 752.956C2466.86 753.672 2466.27 749.505 2465.43 747.162C2453.78 712.591 2440.95 678.347 2429.43 643.711C2368.55 643.059 2307.68 643.646 2246.81 643.386C2233.34 679.974 2220.05 716.563 2206.64 753.086C2169.86 752.956 2133.01 753.411 2096.22 752.825C2158.85 589.219 2220.57 425.286 2283.21 261.68ZM2272.92 564.544C2316.01 564.675 2359.11 564.675 2402.28 564.544C2399.03 551.979 2393.81 540 2389.71 527.695C2372.53 479.323 2355.67 430.886 2338.15 382.644C2316.6 443.386 2294.79 503.998 2272.92 564.544Z" fill="#0A0A1F"/>
<path d="M1739.91 262.466C1799.48 262.4 1859.11 262.466 1918.68 262.4C1944.47 262.531 1970.44 261.554 1996.03 265.721C2029.04 270.734 2061.65 283.234 2086.85 305.564C2113.67 328.872 2127.54 364.093 2130.27 398.99C2132.94 422.556 2130.99 446.645 2125.39 469.627C2118.23 497.947 2101.7 523.859 2078.06 541.112C2046.88 564.94 2007.35 574.835 1968.75 576.593C1928.12 576.853 1887.57 576.658 1847.01 576.658C1847.14 635.447 1846.81 694.106 1847.14 752.83C1811.39 753.416 1775.65 752.96 1739.91 753.091C1739.91 589.549 1739.98 426.007 1739.91 262.466ZM1847.07 350.551C1846.94 397.556 1847.14 444.627 1846.94 491.632C1882.87 491.632 1918.88 491.958 1954.82 491.502C1972.92 489.94 1992.05 485.968 2006.19 473.728C2020.96 461.034 2027.08 440.785 2026.31 421.841C2026.96 402.7 2021.48 382.127 2006.51 369.302C1990.11 354.653 1967.05 351.658 1945.96 350.617C1912.96 350.486 1880.01 350.617 1847.07 350.551Z" fill="#0A0A1F"/>
<path d="M396.096 216.99C429.299 204.815 464.65 198.631 499.937 198.5C500.002 225.974 500.002 253.383 499.937 280.857C444.013 280.662 388.478 303.058 348.31 341.99C305.535 382.616 280.601 441.014 280.796 499.998C253.387 499.998 225.913 500.063 198.504 499.933C198.504 441.274 215.952 382.68 248.504 333.852C283.725 280.597 336.135 238.865 396.096 216.99Z" fill="#0A0A1F"/>
<path d="M4492.84 261.809C4529.75 261.94 4566.73 261.419 4603.59 262.07C4666.4 425.417 4728.06 589.413 4790.5 752.956C4752.67 752.825 4714.85 753.281 4677.08 752.695C4664.32 716.236 4651.63 679.713 4638.48 643.319C4577.93 643.646 4517.39 643.19 4456.9 643.581C4442.9 679.648 4430.01 716.301 4416.79 752.695C4379.95 753.345 4342.97 752.825 4306.12 752.956C4368.49 589.284 4430.53 425.481 4492.84 261.809ZM4547.46 383.62C4526.18 444.035 4504.23 504.257 4482.81 564.609C4525.97 564.674 4569.14 564.674 4612.3 564.544C4592.45 507.904 4572.27 451.328 4552.28 394.753C4550.91 390.911 4550 386.81 4547.46 383.62Z" fill="#0A0A1F"/>
<path d="M2621.22 262.46C2656.97 262.264 2692.65 262.72 2728.38 262.199C2729.04 394.882 2728.65 527.629 2728.59 660.312C2808.34 660.702 2888.15 660.506 2967.9 660.377C2968.49 691.236 2967.97 722.095 2968.16 752.954C2852.54 753.019 2736.85 752.954 2621.22 752.954C2621.22 589.478 2621.29 425.936 2621.22 262.46Z" fill="#0A0A1F"/>
<path d="M3029.88 752.89C3030.08 589.348 3029.88 425.871 3030.01 262.395C3152.54 262.525 3275.06 262.329 3397.59 262.46C3397.53 291.822 3397.53 321.183 3397.59 350.545C3310.62 350.611 3223.69 350.48 3136.72 350.611C3136.72 386.288 3136.59 421.965 3136.78 457.707C3216.73 457.772 3296.68 457.642 3376.63 457.772C3376.5 485.832 3376.5 513.892 3376.63 541.886C3297.33 542.017 3218.03 541.886 3138.8 542.017C3138.28 542.408 3137.24 543.254 3136.72 543.645C3136.59 583.228 3136.78 622.877 3136.65 662.46C3225.32 662.785 3314.06 662.46 3402.8 662.655C3402.93 692.733 3402.73 722.746 3402.86 752.759C3278.59 753.15 3154.23 752.954 3029.88 752.89Z" fill="#0A0A1F"/>
<path d="M3478.06 752.891C3478.19 589.35 3477.99 425.874 3478.19 262.332C3514.64 262.527 3551.1 262.397 3587.63 262.397C3654.95 371.773 3721.88 481.343 3789.32 590.587C3789.45 481.212 3789.32 371.837 3789.38 262.397C3823.9 262.397 3858.4 262.397 3892.9 262.397C3892.97 425.939 3892.9 589.415 3892.97 752.891C3857.09 753.087 3821.22 752.891 3785.36 753.022C3739.85 679.78 3694.73 606.277 3649.35 532.905C3626.89 496.902 3605.14 460.314 3582.16 424.637C3581.97 534.077 3582.16 643.517 3582.09 752.957C3547.4 752.957 3512.76 753.087 3478.06 752.891Z" fill="#0A0A1F"/>
<path d="M3949.55 262.53C4084.05 262.27 4218.55 262.465 4353.06 262.465C4353.06 293.063 4352.99 323.663 4353.06 354.262C4303.84 354.457 4254.62 354.196 4205.4 354.392C4205.46 487.205 4205.34 620.082 4205.46 752.895C4169.33 752.96 4133.14 753.089 4097.01 752.829C4097.07 619.952 4097.14 487.074 4096.94 354.262C4047.79 354.067 3998.5 354.978 3949.42 353.741C3949.74 323.403 3949.48 292.934 3949.55 262.53Z" fill="#0A0A1F"/>
</svg>
