<svg width="20" height="20" viewBox="0 0 20 20" fill="none" xmlns="http://www.w3.org/2000/svg">
<path d="M10 20C15.5228 20 20 15.5228 20 10C20 4.47715 15.5228 0 10 0C4.47715 0 0 4.47715 0 10C0 15.5228 4.47715 20 10 20Z" fill="#F7931A"/>
<path d="M14.4927 8.7625C14.6889 7.4525 13.6908 6.74813 12.327 6.27813L12.7695 4.50312L11.6895 4.23438L11.2583 5.9625C10.9745 5.89125 10.6833 5.825 10.3927 5.75875L10.827 4.01938L9.74703 3.75L9.30453 5.52437C9.06911 5.47146 8.83912 5.41729 8.61453 5.36188L8.61578 5.35625L7.12578 4.98437L6.83828 6.13813C6.83828 6.13813 7.64016 6.32188 7.62328 6.33313C8.06078 6.4425 8.13953 6.73187 8.12641 6.96187L7.62266 8.98375C7.65307 8.99083 7.69057 9.00271 7.73516 9.01937L7.62078 8.99125L6.91453 11.8237C6.86078 11.9562 6.72516 12.1556 6.41891 12.08C6.43016 12.0956 5.63391 11.8844 5.63391 11.8844L5.09766 13.1206L6.50391 13.4713C6.76516 13.5369 7.02141 13.6056 7.27328 13.67L6.82641 15.465L7.90578 15.7337L8.34828 13.9587C8.64287 14.0379 8.92995 14.1123 9.20953 14.1819L8.76828 15.9494L9.84828 16.2181L10.2952 14.4269C12.1377 14.7756 13.5227 14.635 14.1058 12.9688C14.5758 11.6275 14.0827 10.8531 13.1133 10.3488C13.8195 10.1863 14.3508 9.72188 14.4927 8.7625ZM12.0239 12.2238C11.6908 13.5656 9.43141 12.84 8.69891 12.6581L9.29266 10.28C10.0252 10.4631 12.3733 10.825 12.0239 12.2238ZM12.3583 8.74313C12.0539 9.96375 10.1739 9.34313 9.56453 9.19125L10.102 7.035C10.7114 7.18687 12.6758 7.47 12.3583 8.74313Z" fill="white"/>
</svg>
