<svg width="3248" height="1300" viewBox="0 0 3248 1300" fill="none" xmlns="http://www.w3.org/2000/svg">
<path d="M886.102 83.334C902.67 83.334 916.102 96.7738 916.102 113.352V886.642C916.102 903.219 902.67 916.661 886.102 916.661H113.281C96.7128 916.661 83.2812 903.219 83.2812 886.642V113.352C83.2812 105.39 86.4428 97.7534 92.0706 92.1236C97.6982 86.4938 105.331 83.334 113.288 83.334H886.102ZM826.084 143.403H173.314C156.745 143.403 143.314 156.843 143.314 173.422V826.594C143.314 843.173 156.745 856.613 173.314 856.613H826.084C834.04 856.613 841.671 853.451 847.296 847.819C852.924 842.19 856.085 834.555 856.085 826.594V173.422C856.085 165.46 852.924 157.825 847.296 152.196C841.671 146.566 834.04 143.403 826.084 143.403ZM778.782 547.396C795.349 547.396 808.782 560.836 808.782 577.415V762.167C808.782 778.744 795.349 792.184 778.782 792.184L775.713 792.03C760.587 790.492 748.782 777.709 748.782 762.167V637.471C748.782 620.892 735.351 607.453 718.782 607.453H647.867C631.298 607.453 617.867 620.892 617.867 637.471V762.174C617.867 778.753 604.435 792.192 587.866 792.192L584.477 792.003C577.76 791.242 571.458 788.228 566.632 783.396C561.002 777.761 557.841 770.117 557.847 762.149V637.453C557.847 620.874 544.416 607.434 527.847 607.434H224.126C207.557 607.434 194.126 593.994 194.126 577.415L194.281 574.346C195.817 559.209 208.594 547.396 224.126 547.396H778.782ZM757.601 217.776C765.561 217.776 773.194 220.942 778.822 226.576L781.081 229.107C785.291 234.394 787.616 240.982 787.616 247.809C787.616 255.776 784.452 263.413 778.822 269.042L738.474 309.415C732.844 315.046 729.681 322.684 729.681 330.649C729.681 338.611 732.844 346.251 738.474 351.88L778.822 392.253C784.452 397.882 787.616 405.519 787.616 413.484C787.616 421.449 784.452 429.086 778.822 434.715L776.292 436.978C771.008 441.19 764.424 443.515 757.601 443.515C749.642 443.515 742.007 440.351 736.381 434.715L696.035 394.346C690.41 388.713 682.775 385.546 674.815 385.546C666.855 385.546 659.222 388.713 653.595 394.346L613.251 434.715C601.533 446.434 582.54 446.428 570.827 434.705L568.568 432.174C564.36 426.886 562.034 420.301 562.034 413.474C562.034 405.509 565.199 397.871 570.827 392.242L611.175 351.869C616.805 346.238 619.967 338.601 619.967 330.636C619.967 322.674 616.805 315.036 611.175 309.405L570.81 269.032C565.178 263.403 562.016 255.763 562.016 247.799C562.016 239.834 565.178 232.196 570.81 226.565L573.34 224.305C578.624 220.092 585.208 217.765 592.03 217.765C599.99 217.765 607.623 220.932 613.251 226.565L653.595 266.938C659.222 272.571 666.855 275.738 674.815 275.738C682.775 275.738 690.41 272.571 696.035 266.938L736.381 226.576C742.007 220.942 749.642 217.776 757.601 217.776ZM410.521 217.778C418.481 217.778 426.114 220.942 431.74 226.576L434.001 229.107C438.211 234.394 440.534 240.982 440.534 247.809C440.534 255.776 437.369 263.413 431.74 269.042L391.396 309.415C385.766 315.046 382.603 322.684 382.603 330.649C382.603 338.611 385.766 346.251 391.396 351.88L431.74 392.253C437.369 397.882 440.534 405.519 440.534 413.484C440.534 421.449 437.369 429.086 431.74 434.715L429.21 436.978C423.926 441.188 417.344 443.513 410.521 443.513C402.562 443.513 394.929 440.349 389.303 434.715L348.955 394.346C343.327 388.713 335.695 385.549 327.735 385.549C319.777 385.549 312.144 388.713 306.517 394.346L266.169 434.715C260.541 440.346 252.908 443.511 244.948 443.509C236.989 443.507 229.356 440.34 223.732 434.705L221.471 432.174C217.263 426.886 214.938 420.301 214.938 413.474C214.938 405.509 218.102 397.871 223.732 392.242L264.076 351.869C269.706 346.238 272.869 338.601 272.869 330.636C272.869 322.674 269.706 315.036 264.076 309.405L223.732 269.032C218.1 263.403 214.938 255.763 214.938 247.799C214.938 239.834 218.1 232.196 223.732 226.565L226.262 224.305C231.546 220.092 238.128 217.767 244.95 217.767C252.91 217.767 260.543 220.932 266.169 226.565L306.517 266.938C312.144 272.571 319.777 275.736 327.735 275.736C335.695 275.736 343.327 272.571 348.955 266.938L389.303 226.576C394.929 220.942 402.562 217.778 410.521 217.778Z" fill="#FEFEFE"/>
<path d="M1365.66 484.586H1533.56V549.586H1365.66V484.586ZM1371.66 677.086H1290.71V327.086H1555.05V392.086H1371.66V677.086ZM1609.85 677.086V327.086H1780.74C1824.72 327.086 1857.7 335.419 1879.68 352.086C1902 368.753 1913.16 390.753 1913.16 418.086C1913.16 436.419 1908.67 452.419 1899.67 466.086C1890.68 479.419 1878.35 489.753 1862.69 497.086C1847.04 504.419 1829.05 508.086 1808.73 508.086L1818.22 487.586C1840.21 487.586 1859.7 491.253 1876.69 498.586C1893.68 505.586 1906.83 516.086 1916.16 530.086C1925.82 544.086 1930.65 561.253 1930.65 581.586C1930.65 611.586 1918.83 635.086 1895.17 652.086C1871.52 668.753 1836.71 677.086 1790.74 677.086H1609.85ZM1690.3 616.086H1784.74C1805.73 616.086 1821.55 612.753 1832.21 606.086C1843.21 599.086 1848.7 588.086 1848.7 573.086C1848.7 558.419 1843.21 547.586 1832.21 540.586C1821.55 533.253 1805.73 529.586 1784.74 529.586H1684.3V470.586H1770.75C1790.41 470.586 1805.4 467.253 1815.72 460.586C1826.38 453.586 1831.71 443.086 1831.71 429.086C1831.71 415.419 1826.38 405.253 1815.72 398.586C1805.4 391.586 1790.41 388.086 1770.75 388.086H1690.3V616.086ZM1976.45 567.586V505.086H2117.86V567.586H1976.45ZM2243.66 622.086L2245.66 527.086L2371.08 408.086H2464.03L2343.6 530.586L2303.12 563.586L2243.66 622.086ZM2179.2 677.086V306.086H2257.15V677.086H2179.2ZM2379.58 677.086L2288.63 564.086L2337.6 503.586L2474.02 677.086H2379.58ZM2509.06 677.086V408.086H2587.01V677.086H2509.06ZM2548.04 370.586C2533.71 370.586 2522.05 366.419 2513.06 358.086C2504.06 349.753 2499.57 339.419 2499.57 327.086C2499.57 314.753 2504.06 304.419 2513.06 296.086C2522.05 287.753 2533.71 283.586 2548.04 283.586C2562.36 283.586 2574.02 287.586 2583.02 295.586C2592.01 303.253 2596.51 313.253 2596.51 325.586C2596.51 338.586 2592.01 349.419 2583.02 358.086C2574.35 366.419 2562.69 370.586 2548.04 370.586ZM2659.36 677.086V306.086H2737.32V677.086H2659.36ZM2809.67 677.086V306.086H2887.62V677.086H2809.67ZM3124.87 677.086V624.586L3119.87 613.086V519.086C3119.87 502.419 3114.71 489.419 3104.38 480.086C3094.39 470.753 3078.9 466.086 3057.91 466.086C3043.59 466.086 3029.43 468.419 3015.44 473.086C3001.78 477.419 2990.12 483.419 2980.46 491.086L2952.47 436.586C2967.13 426.253 2984.79 418.253 3005.44 412.586C3026.1 406.919 3047.08 404.086 3068.4 404.086C3109.38 404.086 3141.19 413.753 3163.84 433.086C3186.5 452.419 3197.82 482.586 3197.82 523.586V677.086H3124.87ZM3042.92 681.086C3021.93 681.086 3003.94 677.586 2988.95 670.586C2973.96 663.253 2962.47 653.419 2954.47 641.086C2946.48 628.753 2942.48 614.919 2942.48 599.586C2942.48 583.586 2946.31 569.586 2953.97 557.586C2961.97 545.586 2974.46 536.253 2991.45 529.586C3008.44 522.586 3030.59 519.086 3057.91 519.086H3129.37V564.586H3066.4C3048.08 564.586 3035.42 567.586 3028.43 573.586C3021.77 579.586 3018.43 587.086 3018.43 596.086C3018.43 606.086 3022.27 614.086 3029.93 620.086C3037.92 625.753 3048.75 628.586 3062.41 628.586C3075.4 628.586 3087.06 625.586 3097.39 619.586C3107.71 613.253 3115.21 604.086 3119.87 592.086L3131.86 628.086C3126.2 645.419 3115.87 658.586 3100.88 667.586C3085.89 676.586 3066.57 681.086 3042.92 681.086Z" fill="#FEFEFE"/>
</svg>
