<svg width="848" height="304" viewBox="0 0 848 304" fill="none" xmlns="http://www.w3.org/2000/svg">
<path fill-rule="evenodd" clip-rule="evenodd" d="M62.7422 66.6821C48.1361 51.7948 28.3261 43.4317 7.66992 43.4317V6.07617H236.74V43.4317H91.6489C110.218 63.8367 121.022 90.3404 122.114 118.143H200.089V155.498H117.624C112.281 174.169 102.394 191.358 88.6584 205.357C67.179 227.25 38.0465 239.548 7.66992 239.548V202.193C28.3261 202.193 48.1361 193.829 62.7422 178.943C69.452 172.104 74.8113 164.144 78.6447 155.498H44.3211V118.143H85.419C84.301 98.7923 76.2645 80.4635 62.7422 66.6821ZM236.725 80.7891V118.145H273.376V80.7891H236.725ZM236.725 239.554V155.504H273.376V239.554H236.725ZM420.27 177.634V80.7891H457.213V239.55H420.27L346.977 142.479V239.55H310.035V80.7891H346.977L420.27 177.634ZM493.857 80.7891V160.753C493.857 204.271 528.471 239.55 571.169 239.55C586.087 239.55 600.017 235.245 611.829 227.786V239.55H648.48V80.7891H611.829V160.753C611.829 183.641 593.625 202.194 571.169 202.194C548.713 202.194 530.509 183.641 530.509 160.753V80.7891H493.857ZM684.564 297.918V80.7891H762.448C805.463 80.7891 840.332 116.329 840.332 160.17C840.332 204.011 805.463 239.55 762.448 239.55H721.216V297.918H684.564ZM721.216 202.195H762.448C785.219 202.195 803.681 183.378 803.681 160.17C803.681 136.96 785.219 118.145 762.448 118.145H721.216V202.195Z" fill="url(#paint0_linear_14352_93948)"/>
<defs>
<linearGradient id="paint0_linear_14352_93948" x1="424.001" y1="6.07617" x2="424.001" y2="297.918" gradientUnits="userSpaceOnUse">
<stop stop-color="white" stop-opacity="0.1"/>
<stop offset="0.296715" stop-color="white" stop-opacity="0.59"/>
<stop offset="1" stop-color="white" stop-opacity="0"/>
</linearGradient>
</defs>
</svg>
