<svg width="83" height="32" viewBox="0 0 83 32" fill="none" xmlns="http://www.w3.org/2000/svg">
<g clip-path="url(#clip0_14272_18046)">
<path d="M0.259766 7.28601C2.30589 7.28601 4.26821 8.11132 5.71504 9.58046C7.05451 10.9405 7.85058 12.7492 7.96132 14.6588H3.89031V18.3452H7.29028C6.91057 19.1984 6.37969 19.9839 5.71504 20.6588C4.26821 22.1279 2.30589 22.9532 0.259766 22.9532V26.6396C3.26877 26.6396 6.15453 25.4259 8.28221 23.2655C9.64281 21.884 10.6221 20.1877 11.1514 18.3452H19.3201V14.6588H11.5962C11.4881 11.9152 10.4178 9.29966 8.57844 7.28601H22.9507V3.59961H0.259766V7.28601Z" fill="#0A0A1F"/>
<path d="M22.9492 14.6591V10.9727H26.5798V14.6591H22.9492Z" fill="#0A0A1F"/>
<path d="M22.9492 26.6401V18.3457H26.5798V26.6401H22.9492Z" fill="#0A0A1F"/>
<path d="M41.1305 10.9727V20.5297L33.8703 10.9727H30.2109V26.6399H33.8703V17.0605L41.1305 26.6399H44.7898V10.9727H41.1305Z" fill="#0A0A1F"/>
<path d="M48.4199 10.9727V18.8639C48.4199 23.1584 51.8486 26.6399 56.0781 26.6399C57.5558 26.6399 58.9357 26.2151 60.1057 25.479V26.6399H63.7363V10.9727H60.1057V18.8639C60.1057 21.1225 58.3025 22.9535 56.0781 22.9535C53.8537 22.9535 52.0505 21.1225 52.0505 18.8639V10.9727H48.4199Z" fill="#0A0A1F"/>
<path fill-rule="evenodd" clip-rule="evenodd" d="M67.3105 10.9727V32.3999H70.9411V26.6399H75.0255C79.2864 26.6399 82.7404 23.1327 82.7404 18.8063C82.7404 14.4798 79.2864 10.9727 75.0255 10.9727H67.3105ZM75.0255 22.9535H70.9411V14.6591H75.0255C77.2811 14.6591 79.1098 16.5159 79.1098 18.8063C79.1098 21.0966 77.2811 22.9535 75.0255 22.9535Z" fill="#0A0A1F"/>
</g>
<defs>
<clipPath id="clip0_14272_18046">
<rect width="82" height="32" fill="white" transform="translate(0.5)"/>
</clipPath>
</defs>
</svg>
