<svg width="18" height="18" viewBox="0 0 18 18" fill="none" xmlns="http://www.w3.org/2000/svg">
<path d="M2.57227 4.62843C3.73164 4.62843 4.84353 5.08899 5.66333 5.90879C6.42232 6.66777 6.87337 7.67712 6.93611 8.74272H4.62941V10.7999H6.55592C6.34075 11.276 6.03995 11.7143 5.66333 12.0909C4.84353 12.9107 3.73164 13.3713 2.57227 13.3713V15.4284C4.27723 15.4284 5.91236 14.7511 7.11797 13.5456C7.88889 12.7746 8.4438 11.828 8.74369 10.7999H13.3723V8.74272H8.99569C8.93443 7.21162 8.32802 5.75215 7.28576 4.62843H15.4294V2.57129H2.57227V4.62843Z" fill="#0A0A1F"/>
<path d="M13.3711 13.3711V15.4282H15.4282V13.3711H13.3711Z" fill="#0A0A1F"/>
</svg>
