<svg width="52" height="31" viewBox="0 0 52 31" fill="none" xmlns="http://www.w3.org/2000/svg">
<g clip-path="url(#clip0_1411_26574)">
<path d="M18.9512 3.30176H32.9973V27.5732H18.9512V3.30176Z" fill="#FF5F00"/>
<path d="M19.8431 15.4377C19.8431 10.5063 22.2509 6.13217 25.9519 3.30186C23.232 1.24355 19.7986 0 16.053 0C7.17905 0 0 6.90396 0 15.4377C0 23.9712 7.17905 30.8753 16.0528 30.8753C19.7984 30.8753 23.2318 29.6318 25.9519 27.5733C22.2509 24.7859 19.8431 20.3691 19.8431 15.4377Z" fill="#EB001B"/>
<path d="M51.948 15.4377C51.948 23.9712 44.7689 30.8753 35.8952 30.8753C32.1496 30.8753 28.7161 29.6318 25.9961 27.5733C29.7417 24.7432 32.1051 20.3691 32.1051 15.4377C32.1051 10.5063 29.697 6.13217 25.9961 3.30186C28.7159 1.24355 32.1496 0 35.8952 0C44.7689 0 51.948 6.94694 51.948 15.4377Z" fill="#F79E1B"/>
</g>
<defs>
<clipPath id="clip0_1411_26574">
<rect width="52" height="31" fill="white"/>
</clipPath>
</defs>
</svg>
