<svg width="84" height="30" viewBox="0 0 84 30" fill="none" xmlns="http://www.w3.org/2000/svg">
<g clip-path="url(#clip0_14422_23844)">
<path d="M0.759766 4.2865C2.80589 4.2865 4.76821 5.11181 6.21504 6.58095C7.55451 7.94095 8.35058 9.74971 8.46132 11.6593H4.39031V15.3457H7.79028C7.41057 16.1989 6.87969 16.9844 6.21504 17.6593C4.76821 19.1283 2.80589 19.9537 0.759766 19.9537V23.6401C3.76877 23.6401 6.65453 22.4264 8.78221 20.2659C10.1428 18.8845 11.1221 17.1882 11.6514 15.3457H19.8201V11.6593H12.0962C11.9881 8.91564 10.9178 6.30015 9.07844 4.2865H23.4507V0.600098H0.759766V4.2865Z" fill="#0A0A1F"/>
<path d="M23.4492 11.6591V7.97266H27.0798V11.6591H23.4492Z" fill="#0A0A1F"/>
<path d="M23.4492 23.6401V15.3457H27.0798V23.6401H23.4492Z" fill="#0A0A1F"/>
<path d="M41.6305 7.97266V17.5297L34.3703 7.97266H30.7109V23.6399H34.3703V14.0605L41.6305 23.6399H45.2898V7.97266H41.6305Z" fill="#0A0A1F"/>
<path d="M48.9199 7.97266V15.8639C48.9199 20.1584 52.3486 23.6399 56.5781 23.6399C58.0558 23.6399 59.4357 23.2151 60.6057 22.479V23.6399H64.2363V7.97266H60.6057V15.8639C60.6057 18.1225 58.8025 19.9535 56.5781 19.9535C54.3537 19.9535 52.5505 18.1225 52.5505 15.8639V7.97266H48.9199Z" fill="#0A0A1F"/>
<path fill-rule="evenodd" clip-rule="evenodd" d="M67.8105 7.97266V29.3999H71.4411V23.6399H75.5255C79.7864 23.6399 83.2404 20.1327 83.2404 15.8063C83.2404 11.4798 79.7864 7.97266 75.5255 7.97266H67.8105ZM75.5255 19.9535H71.4411V11.6591H75.5255C77.7811 11.6591 79.6098 13.5159 79.6098 15.8063C79.6098 18.0966 77.7811 19.9535 75.5255 19.9535Z" fill="#0A0A1F"/>
</g>
<defs>
<clipPath id="clip0_14422_23844">
<rect width="84" height="30" fill="white"/>
</clipPath>
</defs>
</svg>
