<svg width="40" height="24" viewBox="0 0 40 24" fill="none" xmlns="http://www.w3.org/2000/svg">
<path fill-rule="evenodd" clip-rule="evenodd" d="M27.9762 23.8798C34.6163 23.8798 39.9991 18.561 39.9991 12C39.9991 5.4389 34.6163 0.120117 27.9762 0.120117C25.0002 0.120117 22.2767 1.18853 20.1772 2.95835C18.0777 1.18862 15.3543 0.120267 12.3784 0.120267C5.73831 0.120267 0.355469 5.43905 0.355469 12.0001C0.355469 18.5612 5.73831 23.8799 12.3784 23.8799C15.3544 23.8799 18.0779 22.8115 20.1774 21.0417C22.2769 22.8114 25.0003 23.8798 27.9762 23.8798Z" fill="#ED0006"/>
<path fill-rule="evenodd" clip-rule="evenodd" d="M20.1777 21.0416C22.7627 18.8626 24.4017 15.6204 24.4017 12C24.4017 8.37947 22.7627 5.13726 20.1777 2.95828C22.2772 1.1885 25.0007 0.120117 27.9766 0.120117C34.6167 0.120117 39.9996 5.4389 39.9996 12C39.9996 18.561 34.6167 23.8798 27.9766 23.8798C25.0007 23.8798 22.2772 22.8114 20.1777 21.0416Z" fill="#F9A000"/>
<path fill-rule="evenodd" clip-rule="evenodd" d="M20.1771 21.0418C22.762 18.8629 24.4011 15.6207 24.4011 12.0002C24.4011 8.37969 22.762 5.13747 20.1771 2.9585C17.5922 5.13747 15.9531 8.37969 15.9531 12.0002C15.9531 15.6207 17.5922 18.8629 20.1771 21.0418Z" fill="#FF5E00"/>
</svg>
