<svg width="28" height="28" viewBox="0 0 28 28" fill="none" xmlns="http://www.w3.org/2000/svg">
<path d="M19.5894 26.835C19.0994 26.6367 18.7494 26.1934 18.6677 25.6684C18.6094 25.365 18.6677 25.155 19.1344 24.315C20.8844 21.165 21.7827 17.6067 21.7361 14.0017C21.7827 10.5017 20.9311 7.08337 19.2511 4.01504C19.0061 3.50171 18.7844 3.01171 18.5977 2.48671C18.6677 2.04337 18.8894 1.63504 19.2511 1.39004C19.7761 1.11004 20.4177 1.16837 20.8961 1.49504C21.2227 1.91504 21.5027 2.33504 21.7361 2.82504C22.9913 5.22942 23.8464 7.82229 24.2677 10.5017C24.5361 12.6134 24.5711 14.76 24.3727 16.8834C24.0111 19.6134 23.2061 22.25 21.9694 24.7117C21.2227 26.205 20.8027 26.835 20.3594 26.835H19.5894ZM14.5027 24.2567C13.8377 24.07 13.4177 23.3934 13.5577 22.7167C13.5577 22.5767 13.9194 21.935 14.2461 21.2817C15.6227 18.6334 16.2177 15.6467 15.9494 12.6717C15.7861 10.5367 15.1677 8.46004 14.1527 6.58171C13.4177 5.11171 13.3711 4.87837 13.8027 4.24837C14.3161 3.67671 15.1677 3.59504 15.7977 4.08504C16.6377 5.32171 17.3027 6.67504 17.7927 8.09837C19.2861 12.52 19.0527 17.3384 17.1394 21.585C16.1594 23.79 15.4711 24.5017 14.5027 24.1984V24.2567ZM9.25273 21.655C9.045 21.5618 8.86072 21.4233 8.71337 21.2497C8.56602 21.0762 8.45932 20.8718 8.40106 20.6517C8.40106 20.4184 8.40106 20.115 8.92606 19.1817C9.7809 17.631 10.2292 15.8891 10.2292 14.1184C10.2292 12.3477 9.7809 10.6058 8.92606 9.05504C8.16773 7.58504 8.16773 7.28171 8.78606 6.72171C9.00773 6.46504 9.3344 6.33671 9.6844 6.38337C10.4311 6.38337 10.8511 6.74504 11.4811 8.06337C12.4735 9.88449 12.9873 11.9278 12.9744 14.0017C13.0211 16.1134 12.5077 18.2134 11.4927 20.0684C10.8627 21.2934 10.5477 21.585 9.91773 21.69C9.69606 21.7134 9.46273 21.69 9.25273 21.585V21.655ZM4.34106 19.17C3.95606 18.9834 3.65273 18.6684 3.50106 18.26C3.3844 17.8517 3.50106 17.5017 3.96773 16.755C4.55106 15.9617 4.83106 14.9817 4.77273 14.0017C4.8544 13.01 4.58606 12.03 4.0144 11.2134C3.82035 10.9195 3.64875 10.6114 3.50106 10.2917C3.37273 9.55671 3.86273 8.85671 4.66773 8.71671C5.29773 8.60004 5.74106 8.86837 6.3244 9.75504C7.15193 11.0146 7.59287 12.4888 7.59287 13.9959C7.59287 15.503 7.15193 16.9771 6.3244 18.2367C5.7294 19.135 5.05273 19.4034 4.35273 19.17H4.34106Z" fill="black"/>
</svg>
