<svg width="177" height="97" viewBox="0 0 177 97" fill="none" xmlns="http://www.w3.org/2000/svg">
<g filter="url(#filter0_b_14895_27396)">
<path d="M0 6.50089C0 2.91055 2.91055 0 6.50088 0H169.882C173.473 0 176.383 2.91054 176.383 6.50088V90.4991C176.383 94.0895 173.473 97 169.882 97H6.50088C2.91055 97 0 94.0895 0 90.4991V6.50089Z" fill="white" fill-opacity="0.1"/>
<path d="M6.50088 0.269568H169.882C173.324 0.269568 176.114 3.05942 176.114 6.50088V90.4991C176.114 93.9406 173.324 96.7304 169.882 96.7304H6.50088C3.05942 96.7304 0.269568 93.9406 0.269568 90.4991V6.50089C0.269568 3.05943 3.05942 0.269568 6.50088 0.269568Z" stroke="url(#paint0_linear_14895_27396)" stroke-width="0.539136"/>
<path d="M11.9391 20L10.1685 13.7264H11.3907L12.5211 18.3366H12.5793L13.7862 13.7264H14.8982L16.1082 18.3397H16.1633L17.2936 13.7264H18.5159L16.7453 20H15.6242L14.3682 15.5981H14.3192L13.0602 20H11.9391ZM19.2549 20V15.2948H20.3638V20H19.2549ZM19.8124 14.627C19.6368 14.627 19.4857 14.5688 19.3591 14.4524C19.2324 14.334 19.1691 14.192 19.1691 14.0266C19.1691 13.8592 19.2324 13.7172 19.3591 13.6008C19.4857 13.4824 19.6368 13.4232 19.8124 13.4232C19.9901 13.4232 20.1412 13.4824 20.2658 13.6008C20.3924 13.7172 20.4557 13.8592 20.4557 14.0266C20.4557 14.192 20.3924 14.334 20.2658 14.4524C20.1412 14.5688 19.9901 14.627 19.8124 14.627ZM23.8536 15.2948V16.1525H21.1488V15.2948H23.8536ZM21.8166 14.1675H22.9255V18.5848C22.9255 18.7338 22.9479 18.8482 22.9929 18.9279C23.0398 19.0055 23.1011 19.0586 23.1767 19.0871C23.2522 19.1157 23.336 19.13 23.4279 19.13C23.4973 19.13 23.5606 19.1249 23.6178 19.1147C23.677 19.1045 23.7219 19.0953 23.7526 19.0871L23.9394 19.9541C23.8802 19.9745 23.7954 19.9969 23.6852 20.0214C23.5769 20.0459 23.4442 20.0602 23.2869 20.0643C23.0092 20.0725 22.759 20.0306 22.5364 19.9387C22.3138 19.8448 22.1372 19.6998 22.0065 19.5038C21.8778 19.3077 21.8145 19.0626 21.8166 18.7686V14.1675ZM25.991 17.2431V20H24.8821V13.7264H25.9665V16.0943H26.0217C26.132 15.8288 26.3025 15.6195 26.5332 15.4664C26.766 15.3112 27.0622 15.2335 27.4216 15.2335C27.7483 15.2335 28.0332 15.302 28.2762 15.4388C28.5193 15.5756 28.7071 15.7757 28.8399 16.0392C28.9747 16.3026 29.0421 16.6243 29.0421 17.0041V20H27.9332V17.1757C27.9332 16.8591 27.8515 16.613 27.6881 16.4374C27.5268 16.2597 27.3001 16.1709 27.008 16.1709C26.812 16.1709 26.6364 16.2138 26.4812 16.2996C26.328 16.3833 26.2075 16.5048 26.1197 16.6641C26.0339 16.8234 25.991 17.0164 25.991 17.2431ZM31.9185 20.0827C31.5488 20.0827 31.218 19.9877 30.926 19.7978C30.6339 19.6079 30.4032 19.3322 30.2337 18.9707C30.0642 18.6093 29.9794 18.1702 29.9794 17.6535C29.9794 17.1307 30.0652 16.6896 30.2367 16.3302C30.4103 15.9687 30.6442 15.6961 30.9382 15.5123C31.2323 15.3265 31.5601 15.2335 31.9215 15.2335C32.1972 15.2335 32.4239 15.2805 32.6016 15.3745C32.7793 15.4664 32.9202 15.5777 33.0243 15.7084C33.1285 15.837 33.2091 15.9585 33.2663 16.0729H33.3123V13.7264H34.4242V20H33.3337V19.2587H33.2663C33.2091 19.3731 33.1264 19.4946 33.0182 19.6232C32.91 19.7498 32.767 19.8581 32.5893 19.9479C32.4117 20.0378 32.188 20.0827 31.9185 20.0827ZM32.2279 19.1729C32.4627 19.1729 32.6628 19.1096 32.8283 18.983C32.9937 18.8543 33.1193 18.6756 33.205 18.4469C33.2908 18.2182 33.3337 17.9517 33.3337 17.6474C33.3337 17.3431 33.2908 17.0787 33.205 16.854C33.1213 16.6294 32.9967 16.4548 32.8313 16.3302C32.668 16.2056 32.4668 16.1433 32.2279 16.1433C31.9808 16.1433 31.7745 16.2077 31.6091 16.3363C31.4437 16.465 31.3191 16.6427 31.2354 16.8693C31.1516 17.096 31.1098 17.3554 31.1098 17.6474C31.1098 17.9415 31.1516 18.2039 31.2354 18.4347C31.3211 18.6634 31.4467 18.8441 31.6121 18.9769C31.7796 19.1076 31.9848 19.1729 32.2279 19.1729ZM35.6059 20V15.2948H36.6811V16.079H36.7301C36.8159 15.8074 36.9629 15.5981 37.1712 15.451C37.3816 15.302 37.6215 15.2274 37.8911 15.2274C37.9524 15.2274 38.0208 15.2305 38.0963 15.2366C38.1739 15.2407 38.2383 15.2478 38.2893 15.2581V16.2781C38.2423 16.2618 38.1678 16.2475 38.0657 16.2352C37.9656 16.2209 37.8686 16.2138 37.7747 16.2138C37.5725 16.2138 37.3908 16.2577 37.2294 16.3455C37.0701 16.4313 36.9445 16.5508 36.8526 16.7039C36.7607 16.8571 36.7148 17.0337 36.7148 17.2339V20H35.6059ZM40.2958 20.095C39.9976 20.095 39.729 20.0419 39.4901 19.9357C39.2532 19.8274 39.0653 19.6681 38.9265 19.4578C38.7896 19.2475 38.7212 18.9881 38.7212 18.6797C38.7212 18.4142 38.7702 18.1947 38.8683 18.0211C38.9663 17.8475 39.1001 17.7087 39.2696 17.6045C39.4391 17.5004 39.63 17.4217 39.8424 17.3686C40.0568 17.3135 40.2784 17.2737 40.5071 17.2492C40.7828 17.2206 41.0064 17.1951 41.178 17.1726C41.3495 17.1481 41.4741 17.1113 41.5517 17.0623C41.6313 17.0113 41.6712 16.9326 41.6712 16.8265V16.8081C41.6712 16.5773 41.6027 16.3986 41.4659 16.272C41.3291 16.1454 41.132 16.0821 40.8747 16.0821C40.6031 16.0821 40.3877 16.1413 40.2284 16.2597C40.0711 16.3782 39.9649 16.5181 39.9098 16.6794L38.8744 16.5324C38.9561 16.2465 39.0909 16.0075 39.2787 15.8156C39.4666 15.6216 39.6964 15.4766 39.968 15.3806C40.2396 15.2826 40.5398 15.2335 40.8686 15.2335C41.0953 15.2335 41.3209 15.2601 41.5456 15.3132C41.7702 15.3663 41.9754 15.4541 42.1613 15.5766C42.3471 15.6971 42.4962 15.8615 42.6085 16.0698C42.7229 16.2781 42.7801 16.5385 42.7801 16.851V20H41.714V19.3536H41.6773C41.6099 19.4843 41.5149 19.6069 41.3924 19.7212C41.2719 19.8336 41.1198 19.9244 40.936 19.9939C40.7542 20.0613 40.5408 20.095 40.2958 20.095ZM40.5837 19.2801C40.8063 19.2801 40.9993 19.2362 41.1627 19.1484C41.326 19.0586 41.4516 18.9401 41.5394 18.7931C41.6293 18.646 41.6742 18.4857 41.6742 18.3121V17.7577C41.6395 17.7863 41.5803 17.8128 41.4966 17.8373C41.4149 17.8618 41.323 17.8833 41.2209 17.9017C41.1188 17.92 41.0177 17.9364 40.9176 17.9507C40.8175 17.965 40.7307 17.9772 40.6572 17.9874C40.4918 18.0099 40.3437 18.0467 40.213 18.0977C40.0823 18.1488 39.9792 18.2202 39.9037 18.3121C39.8281 18.402 39.7903 18.5184 39.7903 18.6614C39.7903 18.8656 39.8649 19.0198 40.0139 19.1239C40.163 19.2281 40.3529 19.2801 40.5837 19.2801ZM44.8662 20L43.5367 15.2948H44.667L45.4941 18.6031H45.537L46.3825 15.2948H47.5006L48.346 18.5848H48.392L49.2068 15.2948H50.3402L49.0077 20H47.8528L46.9706 16.8203H46.9063L46.0241 20H44.8662Z" fill="white"/>
<path d="M14.8361 60.4704V45.7667H15.7781V60.4704H14.8361ZM17.5529 50.4707C17.4993 49.9691 17.2734 49.5785 16.8751 49.299C16.4807 49.0195 15.9676 48.8797 15.3358 48.8797C14.8917 48.8797 14.5107 48.9467 14.1929 49.0807C13.875 49.2148 13.6319 49.3966 13.4634 49.6264C13.2949 49.8561 13.2088 50.1184 13.2049 50.4133C13.2049 50.6583 13.2605 50.8708 13.3715 51.0508C13.4864 51.2308 13.6415 51.3839 13.8367 51.5103C14.032 51.6328 14.2484 51.7362 14.4858 51.8205C14.7232 51.9047 14.9625 51.9755 15.2037 52.033L16.3065 52.3087C16.7507 52.4121 17.1776 52.5518 17.5873 52.728C18.0009 52.9041 18.3704 53.1262 18.6959 53.3942C19.0252 53.6622 19.2855 53.9858 19.477 54.3649C19.6684 54.744 19.7642 55.1881 19.7642 55.6974C19.7642 56.3866 19.588 56.9936 19.2358 57.5181C18.8835 58.0389 18.3742 58.4467 17.708 58.7415C17.0455 59.0325 16.2433 59.1781 15.3014 59.1781C14.3862 59.1781 13.5917 59.0364 12.9178 58.753C12.2477 58.4697 11.7231 58.0561 11.344 57.5124C10.9688 56.9687 10.7658 56.3062 10.7352 55.5251H12.8316C12.8622 55.9348 12.9886 56.2756 13.2107 56.5475C13.4328 56.8193 13.7219 57.0223 14.078 57.1563C14.4379 57.2903 14.84 57.3573 15.2841 57.3573C15.7475 57.3573 16.1533 57.2884 16.5018 57.1505C16.8541 57.0089 17.1298 56.8136 17.3289 56.5647C17.528 56.312 17.6295 56.0171 17.6333 55.6802C17.6295 55.3739 17.5395 55.1211 17.3633 54.922C17.1872 54.7191 16.9402 54.5506 16.6224 54.4166C16.3084 54.2787 15.9408 54.1562 15.5196 54.049L14.1814 53.7044C13.2126 53.4555 12.4468 53.0783 11.8839 52.5729C11.3249 52.0636 11.0453 51.3878 11.0453 50.5454C11.0453 49.8523 11.233 49.2454 11.6082 48.7246C11.9873 48.2039 12.5023 47.7999 13.1533 47.5127C13.8042 47.2217 14.5413 47.0762 15.3646 47.0762C16.1993 47.0762 16.9307 47.2217 17.5586 47.5127C18.1904 47.7999 18.6863 48.2001 19.0462 48.7132C19.4062 49.2224 19.5919 49.8083 19.6034 50.4707H17.5529ZM25.7304 59.1608C24.8765 59.1608 24.1183 59.0172 23.4559 58.73C22.7973 58.4429 22.2804 58.0504 21.9051 57.5526C21.5337 57.051 21.3499 56.4824 21.3537 55.8467C21.3499 55.3528 21.4571 54.899 21.6754 54.4855C21.8936 54.072 22.1885 53.7273 22.5599 53.4516C22.9351 53.1721 23.3525 52.9941 23.812 52.9175V52.8371C23.207 52.7031 22.7169 52.3948 22.3416 51.9124C21.9702 51.4261 21.7864 50.8651 21.7902 50.2295C21.7864 49.6245 21.9549 49.0846 22.2957 48.6098C22.6365 48.135 23.1036 47.7616 23.6971 47.4898C24.2906 47.2141 24.9684 47.0762 25.7304 47.0762C26.4847 47.0762 27.1567 47.2141 27.7464 47.4898C28.3399 47.7616 28.807 48.135 29.1478 48.6098C29.4925 49.0846 29.6648 49.6245 29.6648 50.2295C29.6648 50.8651 29.4752 51.4261 29.0961 51.9124C28.7209 52.3948 28.2365 52.7031 27.643 52.8371V52.9175C28.1025 52.9941 28.516 53.1721 28.8836 53.4516C29.2551 53.7273 29.5499 54.072 29.7682 54.4855C29.9902 54.899 30.1013 55.3528 30.1013 55.8467C30.1013 56.4824 29.9137 57.051 29.5384 57.5526C29.1632 58.0504 28.6462 58.4429 27.9876 58.73C27.3329 59.0172 26.5804 59.1608 25.7304 59.1608ZM25.7304 57.5181C26.1707 57.5181 26.5536 57.4435 26.8791 57.2941C27.2046 57.141 27.4573 56.9265 27.6373 56.6509C27.8172 56.3752 27.9091 56.0573 27.913 55.6974C27.9091 55.3222 27.8115 54.9909 27.62 54.7038C27.4324 54.4128 27.1739 54.1849 26.8446 54.0203C26.5192 53.8556 26.1477 53.7733 25.7304 53.7733C25.3092 53.7733 24.9339 53.8556 24.6046 54.0203C24.2753 54.1849 24.0149 54.4128 23.8235 54.7038C23.6359 54.9909 23.544 55.3222 23.5478 55.6974C23.544 56.0573 23.632 56.3752 23.812 56.6509C23.992 56.9227 24.2447 57.1352 24.5702 57.2884C24.8995 57.4416 25.2862 57.5181 25.7304 57.5181ZM25.7304 52.1593C26.0903 52.1593 26.4081 52.0866 26.6838 51.9411C26.9633 51.7956 27.1835 51.5926 27.3443 51.3322C27.5052 51.0719 27.5875 50.7713 27.5913 50.4305C27.5875 50.0935 27.5071 49.7987 27.3501 49.546C27.1931 49.2894 26.9748 49.0922 26.6953 48.9544C26.4158 48.8127 26.0941 48.7419 25.7304 48.7419C25.359 48.7419 25.0316 48.8127 24.7482 48.9544C24.4687 49.0922 24.2504 49.2894 24.0934 49.546C23.9403 49.7987 23.8656 50.0935 23.8694 50.4305C23.8656 50.7713 23.9422 51.0719 24.0992 51.3322C24.26 51.5888 24.4802 51.7917 24.7597 51.9411C25.0431 52.0866 25.3666 52.1593 25.7304 52.1593ZM34.106 57.3918L34.0314 58.0236C33.9778 58.506 33.882 58.9962 33.7442 59.494C33.6102 59.9956 33.4685 60.457 33.3192 60.8782C33.1698 61.2994 33.0492 61.6306 32.9573 61.8718H31.5559C31.6095 61.6382 31.6822 61.3204 31.7741 60.9184C31.8698 60.5163 31.9617 60.0645 32.0498 59.5629C32.1379 59.0613 32.1972 58.552 32.2279 58.0351L32.2681 57.3918H34.106ZM36.4638 59L41.4665 49.098V49.0176H35.6597V47.237H43.6721V49.0578L38.6751 59H36.4638ZM44.3656 56.8174V55.123L49.3568 47.237H50.7697V49.6494H49.9082L46.5482 54.9737V55.0656H53.5152V56.8174H44.3656ZM49.9771 59V56.3005L50.0001 55.5423V47.237H52.0104V59H49.9771ZM59.658 59.1608C59.0951 59.157 58.5457 59.0594 58.0096 58.8679C57.4735 58.6726 56.9911 58.3567 56.5622 57.9202C56.1333 57.4799 55.7926 56.8959 55.5398 56.1684C55.2871 55.437 55.1627 54.5315 55.1665 53.4516C55.1665 52.4446 55.2737 51.5467 55.4881 50.7579C55.7026 49.9691 56.0108 49.3028 56.4129 48.7591C56.8149 48.2115 57.2993 47.7942 57.866 47.507C58.4365 47.2198 59.0741 47.0762 59.7786 47.0762C60.5177 47.0762 61.1724 47.2217 61.743 47.5127C62.3173 47.8037 62.7806 48.202 63.1329 48.7074C63.4852 49.209 63.7035 49.7757 63.7877 50.4075H61.6913C61.5841 49.9557 61.3639 49.5958 61.0307 49.3277C60.7014 49.0559 60.2841 48.9199 59.7786 48.9199C58.963 48.9199 58.3351 49.2741 57.8947 49.9825C57.4582 50.6909 57.238 51.6635 57.2342 52.9003H57.3146C57.5022 52.5633 57.7454 52.2742 58.0441 52.033C58.3427 51.7917 58.6797 51.606 59.0549 51.4758C59.434 51.3418 59.8342 51.2748 60.2554 51.2748C60.9446 51.2748 61.563 51.4395 62.1106 51.7688C62.6619 52.0981 63.0985 52.5518 63.4201 53.13C63.7417 53.7044 63.9007 54.363 63.8968 55.1058C63.9007 55.8793 63.7245 56.5743 63.3684 57.1908C63.0123 57.8034 62.5164 58.2859 61.8808 58.6382C61.2452 58.9904 60.5042 59.1647 59.658 59.1608ZM59.6465 57.4377C60.0639 57.4377 60.4372 57.3363 60.7665 57.1333C61.0958 56.9304 61.3562 56.6566 61.5477 56.312C61.7391 55.9674 61.8329 55.5806 61.8291 55.1518C61.8329 54.7306 61.741 54.3496 61.5534 54.0088C61.3696 53.668 61.115 53.398 60.7895 53.1989C60.464 52.9998 60.0926 52.9003 59.6753 52.9003C59.3651 52.9003 59.076 52.9596 58.808 53.0783C58.5399 53.197 58.3064 53.3617 58.1072 53.5723C57.9081 53.779 57.7511 54.0203 57.6363 54.296C57.5252 54.5678 57.4678 54.8588 57.464 55.169C57.4678 55.5787 57.5635 55.9559 57.7511 56.3005C57.9388 56.6451 58.1972 56.9208 58.5265 57.1276C58.8558 57.3343 59.2292 57.4377 59.6465 57.4377ZM66.6365 59.1264C66.2881 59.1264 65.9894 59.0038 65.7405 58.7588C65.4916 58.5137 65.3691 58.215 65.3729 57.8628C65.3691 57.5181 65.4916 57.2233 65.7405 56.9782C65.9894 56.7332 66.2881 56.6106 66.6365 56.6106C66.9735 56.6106 67.2664 56.7332 67.5153 56.9782C67.768 57.2233 67.8963 57.5181 67.9001 57.8628C67.8963 58.0963 67.835 58.3088 67.7163 58.5003C67.6015 58.6918 67.4483 58.8449 67.2568 58.9598C67.0692 59.0708 66.8625 59.1264 66.6365 59.1264ZM70.0238 59V57.4607L74.1076 53.4574C74.4981 53.063 74.8236 52.7126 75.084 52.4063C75.3444 52.1 75.5396 51.8032 75.6698 51.516C75.8 51.2289 75.8651 50.9225 75.8651 50.5971C75.8651 50.2256 75.7809 49.9078 75.6124 49.6436C75.4439 49.3756 75.2123 49.1688 74.9174 49.0233C74.6226 48.8778 74.2875 48.805 73.9123 48.805C73.5255 48.805 73.1867 48.8855 72.8957 49.0463C72.6046 49.2033 72.3787 49.4273 72.2179 49.7183C72.0609 50.0093 71.9824 50.3558 71.9824 50.7579H69.9549C69.9549 50.0112 70.1253 49.3622 70.4661 48.8108C70.8069 48.2594 71.276 47.8325 71.8733 47.53C72.4745 47.2275 73.1637 47.0762 73.941 47.0762C74.7298 47.0762 75.4229 47.2236 76.0202 47.5185C76.6175 47.8133 77.0809 48.2173 77.4102 48.7304C77.7433 49.2435 77.9099 49.8293 77.9099 50.4879C77.9099 50.9283 77.8256 51.361 77.6571 51.786C77.4887 52.211 77.1919 52.682 76.7669 53.1989C76.3457 53.7159 75.7541 54.3419 74.9921 55.0771L72.9646 57.1391V57.2195H78.0879V59H70.0238ZM80.0695 59V57.4607L84.1532 53.4574C84.5437 53.063 84.8692 52.7126 85.1296 52.4063C85.39 52.1 85.5853 51.8032 85.7154 51.516C85.8456 51.2289 85.9107 50.9225 85.9107 50.5971C85.9107 50.2256 85.8265 49.9078 85.658 49.6436C85.4895 49.3756 85.2579 49.1688 84.963 49.0233C84.6682 48.8778 84.3331 48.805 83.9579 48.805C83.5712 48.805 83.2323 48.8855 82.9413 49.0463C82.6503 49.2033 82.4243 49.4273 82.2635 49.7183C82.1065 50.0093 82.028 50.3558 82.028 50.7579H80.0005C80.0005 50.0112 80.1709 49.3622 80.5117 48.8108C80.8525 48.2594 81.3216 47.8325 81.9189 47.53C82.5201 47.2275 83.2093 47.0762 83.9866 47.0762C84.7754 47.0762 85.4685 47.2236 86.0658 47.5185C86.6631 47.8133 87.1265 48.2173 87.4558 48.7304C87.7889 49.2435 87.9555 49.8293 87.9555 50.4879C87.9555 50.9283 87.8712 51.361 87.7027 51.786C87.5343 52.211 87.2375 52.682 86.8125 53.1989C86.3913 53.7159 85.7997 54.3419 85.0377 55.0771L83.0102 57.1391V57.2195H88.1335V59H80.0695Z" fill="white"/>
<path d="M14.3128 84.0163V78.9844M14.3128 78.9844L11.7969 81.5003M14.3128 78.9844L16.8288 81.5003" stroke="#17B26A" stroke-width="1.07827" stroke-linecap="round" stroke-linejoin="round"/>
<path d="M22.5344 78.5106V84H21.7035V79.3415H21.6714L20.358 80.1992V79.4059L21.7277 78.5106H22.5344ZM25.9305 84.0911C25.507 84.0893 25.1451 83.9777 24.8449 83.7561C24.5447 83.5345 24.3151 83.212 24.1561 82.7885C23.997 82.365 23.9175 81.8548 23.9175 81.258C23.9175 80.6629 23.997 80.1546 24.1561 79.7329C24.3169 79.3112 24.5474 78.9895 24.8476 78.7679C25.1496 78.5464 25.5105 78.4356 25.9305 78.4356C26.3504 78.4356 26.7104 78.5472 27.0106 78.7706C27.3108 78.9922 27.5405 79.3138 27.6995 79.7355C27.8603 80.1555 27.9407 80.6629 27.9407 81.258C27.9407 81.8566 27.8612 82.3677 27.7022 82.7912C27.5431 83.2129 27.3135 83.5354 27.0133 83.7588C26.7131 83.9803 26.3522 84.0911 25.9305 84.0911ZM25.9305 83.3755C26.3021 83.3755 26.5925 83.1941 26.8016 82.8314C27.0124 82.4686 27.1179 81.9442 27.1179 81.258C27.1179 80.8023 27.0696 80.4172 26.9731 80.1028C26.8784 79.7865 26.7417 79.547 26.563 79.3844C26.3861 79.22 26.1753 79.1378 25.9305 79.1378C25.5606 79.1378 25.2702 79.3201 25.0593 79.6846C24.8485 80.0491 24.7422 80.5736 24.7404 81.258C24.7404 81.7154 24.7877 82.1023 24.8824 82.4186C24.9789 82.7331 25.1156 82.9716 25.2925 83.1342C25.4694 83.2951 25.6821 83.3755 25.9305 83.3755ZM30.8027 84.0911C30.3792 84.0893 30.0173 83.9777 29.7171 83.7561C29.4169 83.5345 29.1873 83.212 29.0283 82.7885C28.8693 82.365 28.7897 81.8548 28.7897 81.258C28.7897 80.6629 28.8693 80.1546 29.0283 79.7329C29.1891 79.3112 29.4196 78.9895 29.7198 78.7679C30.0218 78.5464 30.3828 78.4356 30.8027 78.4356C31.2226 78.4356 31.5827 78.5472 31.8829 78.7706C32.1831 78.9922 32.4127 79.3138 32.5717 79.7355C32.7325 80.1555 32.813 80.6629 32.813 81.258C32.813 81.8566 32.7334 82.3677 32.5744 82.7912C32.4154 83.2129 32.1858 83.5354 31.8856 83.7588C31.5854 83.9803 31.2244 84.0911 30.8027 84.0911ZM30.8027 83.3755C31.1744 83.3755 31.4647 83.1941 31.6738 82.8314C31.8847 82.4686 31.9901 81.9442 31.9901 81.258C31.9901 80.8023 31.9418 80.4172 31.8453 80.1028C31.7506 79.7865 31.6139 79.547 31.4353 79.3844C31.2583 79.22 31.0475 79.1378 30.8027 79.1378C30.4328 79.1378 30.1424 79.3201 29.9316 79.6846C29.7207 80.0491 29.6144 80.5736 29.6126 81.258C29.6126 81.7154 29.66 82.1023 29.7547 82.4186C29.8512 82.7331 29.9879 82.9716 30.1648 83.1342C30.3417 83.2951 30.5543 83.3755 30.8027 83.3755ZM36.6291 82.9707V82.6813C36.6291 82.474 36.672 82.2846 36.7578 82.113C36.8453 81.9397 36.9722 81.8012 37.1384 81.6976C37.3064 81.5921 37.5092 81.5394 37.7468 81.5394C37.9899 81.5394 38.1936 81.5912 38.358 81.6949C38.5224 81.7985 38.6465 81.937 38.7305 82.1103C38.8163 82.2837 38.8592 82.474 38.8592 82.6813V82.9707C38.8592 83.178 38.8163 83.3683 38.7305 83.5417C38.6448 83.7132 38.5188 83.8517 38.3526 83.9571C38.1882 84.0608 37.9863 84.1126 37.7468 84.1126C37.5056 84.1126 37.3019 84.0608 37.1357 83.9571C36.9695 83.8517 36.8436 83.7132 36.7578 83.5417C36.672 83.3683 36.6291 83.178 36.6291 82.9707ZM37.2536 82.6813V82.9707C37.2536 83.1244 37.2903 83.2638 37.3635 83.3889C37.4368 83.514 37.5646 83.5765 37.7468 83.5765C37.9273 83.5765 38.0533 83.514 38.1248 83.3889C38.1962 83.2638 38.232 83.1244 38.232 82.9707V82.6813C38.232 82.5276 38.1971 82.3882 38.1274 82.2631C38.0595 82.138 37.9327 82.0755 37.7468 82.0755C37.5681 82.0755 37.4413 82.138 37.3662 82.2631C37.2912 82.3882 37.2536 82.5276 37.2536 82.6813ZM33.8684 79.8294V79.5399C33.8684 79.3326 33.9112 79.1423 33.997 78.969C34.0846 78.7956 34.2114 78.6571 34.3776 78.5535C34.5456 78.4499 34.7484 78.398 34.9861 78.398C35.2291 78.398 35.4328 78.4499 35.5972 78.5535C35.7616 78.6571 35.8858 78.7956 35.9698 78.969C36.0537 79.1423 36.0957 79.3326 36.0957 79.5399V79.8294C36.0957 80.0366 36.0528 80.2269 35.9671 80.4003C35.8831 80.5718 35.758 80.7103 35.5918 80.8157C35.4274 80.9194 35.2255 80.9712 34.9861 80.9712C34.743 80.9712 34.5384 80.9194 34.3723 80.8157C34.2079 80.7103 34.0828 80.5718 33.997 80.4003C33.9112 80.2269 33.8684 80.0366 33.8684 79.8294ZM34.4956 79.5399V79.8294C34.4956 79.983 34.5313 80.1224 34.6028 80.2475C34.676 80.3726 34.8038 80.4351 34.9861 80.4351C35.1648 80.4351 35.2898 80.3726 35.3613 80.2475C35.4346 80.1224 35.4712 79.983 35.4712 79.8294V79.5399C35.4712 79.3862 35.4364 79.2468 35.3667 79.1217C35.297 78.9967 35.1701 78.9341 34.9861 78.9341C34.8074 78.9341 34.6805 78.9967 34.6055 79.1217C34.5322 79.2468 34.4956 79.3862 34.4956 79.5399ZM34.123 84L37.8969 78.5106H38.5375L34.7636 84H34.123Z" fill="#079455"/>
<path d="M51.7658 79.9923L50.2729 84.1094H49.4151L47.9195 79.9923H48.7799L49.8226 83.1605H49.8655L50.9054 79.9923H51.7658ZM55.6041 80.9975L54.8777 81.1261C54.8474 81.0332 54.7991 80.9448 54.733 80.8608C54.6687 80.7768 54.5811 80.708 54.4703 80.6544C54.3595 80.6008 54.221 80.574 54.0549 80.574C53.8279 80.574 53.6385 80.6249 53.4866 80.7268C53.3347 80.8268 53.2588 80.9564 53.2588 81.1154C53.2588 81.253 53.3097 81.3638 53.4116 81.4478C53.5134 81.5318 53.6778 81.6006 53.9048 81.6542L54.5588 81.8043C54.9376 81.8918 55.2199 82.0267 55.4058 82.209C55.5916 82.3913 55.6845 82.628 55.6845 82.9193C55.6845 83.1659 55.613 83.3857 55.4701 83.5787C55.3289 83.7699 55.1315 83.92 54.8777 84.029C54.6258 84.138 54.3336 84.1925 54.0012 84.1925C53.5402 84.1925 53.1641 84.0942 52.8728 83.8976C52.5816 83.6993 52.4029 83.4178 52.3367 83.0533L53.1114 82.9354C53.1596 83.1373 53.2588 83.2901 53.4089 83.3937C53.559 83.4956 53.7547 83.5465 53.9959 83.5465C54.2586 83.5465 54.4685 83.492 54.6258 83.383C54.783 83.2722 54.8616 83.1373 54.8616 82.9783C54.8616 82.8496 54.8134 82.7415 54.7169 82.6539C54.6222 82.5664 54.4766 82.5003 54.28 82.4556L53.5831 82.3028C53.1989 82.2153 52.9148 82.0759 52.7308 81.8847C52.5485 81.6935 52.4574 81.4513 52.4574 81.1583C52.4574 80.9153 52.5253 80.7026 52.6611 80.5204C52.7969 80.3381 52.9845 80.196 53.2239 80.0942C53.4634 79.9906 53.7377 79.9387 54.0468 79.9387C54.4918 79.9387 54.842 80.0352 55.0975 80.2282C55.353 80.4194 55.5219 80.6758 55.6041 80.9975ZM59.3647 78.62V84.1094H58.5632V78.62H59.3647ZM61.641 84.2005C61.3801 84.2005 61.1442 84.1523 60.9333 84.0558C60.7225 83.9575 60.5554 83.8154 60.4321 83.6296C60.3106 83.4438 60.2498 83.2159 60.2498 82.9461C60.2498 82.7138 60.2945 82.5226 60.3839 82.3725C60.4732 82.2224 60.5938 82.1036 60.7457 82.016C60.8976 81.9285 61.0674 81.8623 61.255 81.8177C61.4426 81.773 61.6338 81.739 61.8286 81.7158C62.0752 81.6872 62.2753 81.664 62.429 81.6461C62.5827 81.6265 62.6943 81.5952 62.764 81.5523C62.8337 81.5094 62.8686 81.4397 62.8686 81.3432V81.3245C62.8686 81.0904 62.8024 80.909 62.6702 80.7804C62.5398 80.6517 62.345 80.5874 62.0859 80.5874C61.8161 80.5874 61.6034 80.6472 61.448 80.767C61.2943 80.8849 61.188 81.0162 61.129 81.161L60.3758 80.9894C60.4652 80.7393 60.5956 80.5373 60.7672 80.3837C60.9405 80.2282 61.1397 80.1156 61.3649 80.0459C61.59 79.9745 61.8268 79.9387 62.0752 79.9387C62.2396 79.9387 62.4138 79.9584 62.5978 79.9977C62.7837 80.0352 62.957 80.1049 63.1178 80.2068C63.2804 80.3086 63.4136 80.4543 63.5172 80.6437C63.6208 80.8313 63.6727 81.0752 63.6727 81.3754V84.1094H62.89V83.5465H62.8578C62.806 83.6501 62.7283 83.752 62.6246 83.8521C62.521 83.9521 62.3879 84.0352 62.2253 84.1013C62.0627 84.1674 61.8679 84.2005 61.641 84.2005ZM61.8152 83.5572C62.0368 83.5572 62.2262 83.5134 62.3834 83.4259C62.5424 83.3383 62.6631 83.224 62.7453 83.0828C62.8292 82.9398 62.8712 82.7871 62.8712 82.6245V82.0937C62.8426 82.1223 62.7873 82.1491 62.7051 82.1742C62.6246 82.1974 62.5326 82.2179 62.429 82.2358C62.3253 82.2519 62.2244 82.2671 62.1261 82.2814C62.0278 82.2939 61.9456 82.3046 61.8795 82.3135C61.724 82.3332 61.582 82.3662 61.4533 82.4127C61.3265 82.4592 61.2246 82.5262 61.1478 82.6137C61.0727 82.6995 61.0352 82.8139 61.0352 82.9568C61.0352 83.1552 61.1085 83.3053 61.255 83.4071C61.4015 83.5072 61.5882 83.5572 61.8152 83.5572ZM67.8252 80.9975L67.0988 81.1261C67.0685 81.0332 67.0202 80.9448 66.9541 80.8608C66.8898 80.7768 66.8022 80.708 66.6914 80.6544C66.5806 80.6008 66.4422 80.574 66.276 80.574C66.049 80.574 65.8596 80.6249 65.7077 80.7268C65.5558 80.8268 65.4799 80.9564 65.4799 81.1154C65.4799 81.253 65.5308 81.3638 65.6327 81.4478C65.7345 81.5318 65.8989 81.6006 66.1259 81.6542L66.7799 81.8043C67.1587 81.8918 67.441 82.0267 67.6269 82.209C67.8127 82.3913 67.9056 82.628 67.9056 82.9193C67.9056 83.1659 67.8342 83.3857 67.6912 83.5787C67.55 83.7699 67.3526 83.92 67.0988 84.029C66.8469 84.138 66.5547 84.1925 66.2224 84.1925C65.7613 84.1925 65.3852 84.0942 65.0939 83.8976C64.8027 83.6993 64.624 83.4178 64.5579 83.0533L65.3325 82.9354C65.3807 83.1373 65.4799 83.2901 65.63 83.3937C65.7801 83.4956 65.9758 83.5465 66.217 83.5465C66.4797 83.5465 66.6896 83.492 66.8469 83.383C67.0041 83.2722 67.0828 83.1373 67.0828 82.9783C67.0828 82.8496 67.0345 82.7415 66.938 82.6539C66.8433 82.5664 66.6977 82.5003 66.5011 82.4556L65.8042 82.3028C65.42 82.2153 65.1359 82.0759 64.9519 81.8847C64.7696 81.6935 64.6785 81.4513 64.6785 81.1583C64.6785 80.9153 64.7464 80.7026 64.8822 80.5204C65.018 80.3381 65.2056 80.196 65.4451 80.0942C65.6845 79.9906 65.9588 79.9387 66.2679 79.9387C66.7129 79.9387 67.0631 80.0352 67.3186 80.2282C67.5742 80.4194 67.743 80.6758 67.8252 80.9975ZM70.7086 79.9923V80.6356H68.4598V79.9923H70.7086ZM69.0629 79.006H69.8643V82.9005C69.8643 83.056 69.8875 83.173 69.934 83.2517C69.9805 83.3285 70.0403 83.3812 70.1136 83.4098C70.1886 83.4366 70.2699 83.45 70.3575 83.45C70.4218 83.45 70.4781 83.4455 70.5264 83.4366C70.5746 83.4277 70.6121 83.4205 70.6389 83.4152L70.7837 84.0772C70.7372 84.0951 70.6711 84.1129 70.5853 84.1308C70.4996 84.1505 70.3923 84.1612 70.2637 84.163C70.0528 84.1666 69.8563 84.129 69.674 84.0504C69.4917 83.9718 69.3443 83.8503 69.2317 83.6859C69.1192 83.5215 69.0629 83.3151 69.0629 83.0667V79.006ZM73.5927 84.1094V79.9923H74.362V80.6624H74.4129C74.4987 80.4355 74.6389 80.2586 74.8337 80.1317C75.0285 80.0031 75.2617 79.9387 75.5333 79.9387C75.8085 79.9387 76.039 80.0031 76.2248 80.1317C76.4124 80.2604 76.5509 80.4373 76.6403 80.6624H76.6831C76.7814 80.4426 76.9378 80.2675 77.1522 80.1371C77.3666 80.0048 77.6222 79.9387 77.9188 79.9387C78.2923 79.9387 78.5969 80.0558 78.8328 80.2899C79.0705 80.5239 79.1893 80.8769 79.1893 81.3486V84.1094H78.3879V81.4237C78.3879 81.1449 78.3119 80.943 78.16 80.8179C78.0081 80.6928 77.8268 80.6303 77.6159 80.6303C77.355 80.6303 77.1522 80.7107 77.0075 80.8715C76.8627 81.0305 76.7904 81.2351 76.7904 81.4853V84.1094H75.9916V81.3727C75.9916 81.1494 75.9219 80.9698 75.7825 80.834C75.6432 80.6982 75.4618 80.6303 75.2384 80.6303C75.0865 80.6303 74.9463 80.6705 74.8176 80.7509C74.6907 80.8295 74.588 80.9394 74.5094 81.0806C74.4325 81.2217 74.3941 81.3852 74.3941 81.5711V84.1094H73.5927ZM81.9976 84.1925C81.6117 84.1925 81.2748 84.104 80.9871 83.9271C80.6994 83.7502 80.4761 83.5027 80.317 83.1846C80.158 82.8666 80.0785 82.4949 80.0785 82.0696C80.0785 81.6425 80.158 81.2691 80.317 80.9492C80.4761 80.6294 80.6994 80.381 80.9871 80.2041C81.2748 80.0272 81.6117 79.9387 81.9976 79.9387C82.3836 79.9387 82.7204 80.0272 83.0081 80.2041C83.2958 80.381 83.5192 80.6294 83.6782 80.9492C83.8373 81.2691 83.9168 81.6425 83.9168 82.0696C83.9168 82.4949 83.8373 82.8666 83.6782 83.1846C83.5192 83.5027 83.2958 83.7502 83.0081 83.9271C82.7204 84.104 82.3836 84.1925 81.9976 84.1925ZM82.0003 83.5197C82.2505 83.5197 82.4578 83.4536 82.6222 83.3213C82.7866 83.1891 82.9081 83.0131 82.9867 82.7933C83.0671 82.5735 83.1073 82.3314 83.1073 82.0669C83.1073 81.8043 83.0671 81.563 82.9867 81.3432C82.9081 81.1217 82.7866 80.9439 82.6222 80.8098C82.4578 80.6758 82.2505 80.6088 82.0003 80.6088C81.7484 80.6088 81.5393 80.6758 81.3731 80.8098C81.2087 80.9439 81.0863 81.1217 81.0059 81.3432C80.9273 81.563 80.888 81.8043 80.888 82.0669C80.888 82.3314 80.9273 82.5735 81.0059 82.7933C81.0863 83.0131 81.2087 83.1891 81.3731 83.3213C81.5393 83.4536 81.7484 83.5197 82.0003 83.5197ZM85.3474 84.1603C85.2009 84.1603 85.0749 84.1085 84.9695 84.0048C84.8641 83.8994 84.8113 83.7725 84.8113 83.6242C84.8113 83.4777 84.8641 83.3526 84.9695 83.249C85.0749 83.1436 85.2009 83.0908 85.3474 83.0908C85.4939 83.0908 85.6199 83.1436 85.7254 83.249C85.8308 83.3526 85.8835 83.4777 85.8835 83.6242C85.8835 83.7225 85.8585 83.8127 85.8084 83.8949C85.7602 83.9754 85.6959 84.0397 85.6155 84.0879C85.535 84.1362 85.4457 84.1603 85.3474 84.1603ZM87.3497 84.1603C87.2031 84.1603 87.0771 84.1085 86.9717 84.0048C86.8663 83.8994 86.8136 83.7725 86.8136 83.6242C86.8136 83.4777 86.8663 83.3526 86.9717 83.249C87.0771 83.1436 87.2031 83.0908 87.3497 83.0908C87.4962 83.0908 87.6222 83.1436 87.7276 83.249C87.833 83.3526 87.8857 83.4777 87.8857 83.6242C87.8857 83.7225 87.8607 83.8127 87.8107 83.8949C87.7624 83.9754 87.6981 84.0397 87.6177 84.0879C87.5373 84.1362 87.4479 84.1603 87.3497 84.1603ZM89.3546 84.1603C89.208 84.1603 89.0821 84.1085 88.9766 84.0048C88.8712 83.8994 88.8185 83.7725 88.8185 83.6242C88.8185 83.4777 88.8712 83.3526 88.9766 83.249C89.0821 83.1436 89.208 83.0908 89.3546 83.0908C89.5011 83.0908 89.6271 83.1436 89.7325 83.249C89.8379 83.3526 89.8906 83.4777 89.8906 83.6242C89.8906 83.7225 89.8656 83.8127 89.8156 83.8949C89.7673 83.9754 89.703 84.0397 89.6226 84.0879C89.5422 84.1362 89.4528 84.1603 89.3546 84.1603Z" fill="white"/>
<mask id="mask0_14895_27396" style="mask-type:alpha" maskUnits="userSpaceOnUse" x="106" y="56" width="60" height="31">
<rect width="60" height="30" transform="translate(106 56.8086)" fill="url(#paint1_linear_14895_27396)"/>
</mask>
<g mask="url(#mask0_14895_27396)">
<path opacity="0.3" d="M112.349 81.1098L106.465 81.9257C106.198 81.9627 106 82.1906 106 82.4597V86.5388C106 86.8366 106.241 87.0779 106.539 87.0779H165.461C165.759 87.0779 166 86.8366 166 86.5388V62.1782C166 61.8805 165.759 61.6391 165.461 61.6391H163.984C163.901 61.6391 163.818 61.6196 163.743 61.5822L157.727 58.5747C157.544 58.4834 157.325 58.5031 157.162 58.6256L151.087 63.1805C151.03 63.2236 150.964 63.2547 150.894 63.2722L144.662 64.8298C144.602 64.8448 144.545 64.8699 144.494 64.9042L138.341 69.0046C138.215 69.0889 138.059 69.1159 137.912 69.0791L131.887 67.5735C131.775 67.5454 131.656 67.5543 131.549 67.5989L125.413 70.1549C125.33 70.1897 125.256 70.245 125.199 70.3157L118.939 78.1388C118.885 78.2061 118.816 78.2596 118.737 78.2946L112.494 81.0685C112.448 81.0889 112.399 81.1029 112.349 81.1098Z" fill="#17B26A"/>
</g>
<path d="M106 81.9562L112.349 81.077C112.399 81.0701 112.448 81.0562 112.494 81.0358L118.737 78.2659C118.816 78.2309 118.885 78.1776 118.939 78.1103L125.199 70.2986C125.256 70.228 125.33 70.1727 125.413 70.138L131.55 67.5855C131.657 67.5411 131.775 67.5322 131.887 67.5602L137.912 69.0637C138.059 69.1005 138.215 69.0735 138.341 68.9895L144.494 64.8948C144.545 64.8606 144.602 64.8355 144.662 64.8206L150.894 63.2651C150.964 63.2478 151.03 63.2167 151.087 63.1736L157.162 58.6251C157.326 58.5029 157.544 58.4833 157.726 58.5743L163.743 61.5777C163.818 61.615 163.901 61.6345 163.984 61.6345H166" stroke="#17B26A" stroke-width="1.07827" stroke-linecap="round" stroke-linejoin="round"/>
<g clip-path="url(#clip0_14895_27396)">
<path d="M159.827 17.9716V16.1744M159.827 14.3773H159.831M164.32 16.1744C164.32 18.6557 162.308 20.6672 159.827 20.6672C157.345 20.6672 155.334 18.6557 155.334 16.1744C155.334 13.6931 157.345 11.6816 159.827 11.6816C162.308 11.6816 164.32 13.6931 164.32 16.1744Z" stroke="#ADB2C2" stroke-width="0.898559" stroke-linecap="round" stroke-linejoin="round"/>
</g>
</g>
<defs>
<filter id="filter0_b_14895_27396" x="-25" y="-25" width="226.383" height="147" filterUnits="userSpaceOnUse" color-interpolation-filters="sRGB">
<feFlood flood-opacity="0" result="BackgroundImageFix"/>
<feGaussianBlur in="BackgroundImageFix" stdDeviation="12.5"/>
<feComposite in2="SourceAlpha" operator="in" result="effect1_backgroundBlur_14895_27396"/>
<feBlend mode="normal" in="SourceGraphic" in2="effect1_backgroundBlur_14895_27396" result="shape"/>
</filter>
<linearGradient id="paint0_linear_14895_27396" x1="163.737" y1="6.365" x2="-9.88327" y2="70.4242" gradientUnits="userSpaceOnUse">
<stop stop-color="white" stop-opacity="0.2"/>
<stop offset="1" stop-color="white" stop-opacity="0.05"/>
</linearGradient>
<linearGradient id="paint1_linear_14895_27396" x1="30" y1="0" x2="30" y2="30" gradientUnits="userSpaceOnUse">
<stop/>
<stop offset="1" stop-opacity="0"/>
</linearGradient>
<clipPath id="clip0_14895_27396">
<rect width="10.7827" height="10.7827" fill="white" transform="translate(154.436 10.7832)"/>
</clipPath>
</defs>
</svg>
