<svg width="7385" height="1300" viewBox="0 0 7385 1300" fill="none" xmlns="http://www.w3.org/2000/svg">
<mask id="mask0_14987_19206" style="mask-type:luminance" maskUnits="userSpaceOnUse" x="0" y="0" width="7380" height="1300">
<path d="M7379.46 0H0.736328V1299.62H7379.46V0Z" fill="white"/>
</mask>
<g mask="url(#mask0_14987_19206)">
<path fill-rule="evenodd" clip-rule="evenodd" d="M598.058 451.506H685.449V501.156C688.999 547.42 706.697 579.046 737.666 600.84C771.852 623.759 812.254 635.623 853.405 634.815C918.948 634.815 946.258 625.147 975.097 605.701C1007.21 583.853 1023.33 550.697 1022.73 498.589V431.514C1022.96 421.483 1019.41 411.733 1012.79 404.202C1009.33 400.301 1005.14 397.123 1000.46 394.854C995.765 392.584 990.674 391.269 985.474 390.984H983.673H879.895H598.604L598.058 451.669V451.506ZM745.531 451.506H880.114H962.043V499.299C962.043 528.796 955.216 546.328 940.851 556.05C923.372 567.904 894.041 576.478 854.333 574.731C816.427 573.31 789.227 566.483 772.076 551.626C756.4 540.702 747.442 523.279 745.368 497.006V451.34L745.531 451.506ZM107.518 0.000845034H1092.58H1093.13C1107.79 -0.0581876 1122.29 2.97635 1135.69 8.90614C1149.09 14.8359 1161.09 23.5274 1170.91 34.4126C1190.56 57.4201 1201.14 86.8035 1200.68 117.056V855.487V856.415C1199.53 890.555 1190.13 919.723 1170.36 941.026C1151.63 961.181 1124.97 973.142 1089.03 974.345H1087.67L823.419 974.727C821.812 974.628 820.217 975.005 818.83 975.819C817.749 977.605 817.274 979.692 817.465 981.773L816.208 1231.45V1231.78C816.488 1246.91 812.615 1261.84 805.012 1274.93C801.494 1280.68 796.873 1285.68 791.422 1289.63C785.966 1293.59 779.777 1296.43 773.223 1297.98C760.645 1300.66 747.53 1299.19 735.864 1293.77C719.094 1286.67 700.634 1271.92 682.554 1248.87L681.408 1247.24C631.321 1173.77 578.886 1102.98 524.212 1051.69C472.923 1003.51 420.107 972.705 366.36 974.181H114.018C98.8377 974.678 83.7234 971.968 69.6621 966.228C55.6014 960.487 42.9093 951.84 32.4158 940.861C12.0426 919.013 1.33714 888.751 0.736328 855.651V855.159L1.17329 118.804C1.00205 88.719 11.5118 59.5492 30.8318 36.4883C40.1718 25.4072 51.7503 16.4276 64.807 10.139C77.8632 3.85054 92.1026 0.395498 106.589 0.000845034H107.518ZM1092.04 58.4464C1098.67 58.3487 1105.25 59.6394 1111.36 62.2355C1117.46 64.8318 1122.95 68.676 1127.49 73.5221C1137.56 85.8142 1142.86 101.332 1142.4 117.22L1142.12 854.613C1141.47 874.823 1136.66 890.991 1127.38 901.26C1119.13 910.055 1105.97 915.408 1086.96 916.063L822.817 916.445H822.053C813.593 916.428 805.22 918.117 797.431 921.41C789.641 924.704 782.596 929.538 776.719 935.618C765.215 948.164 758.978 964.649 759.295 981.664L758.093 1231.01C758.099 1233.87 757.826 1236.73 757.274 1239.53C746.137 1232.88 736.519 1223.97 729.036 1213.37C677.257 1137.34 622.582 1063.92 564.358 1009.25C502.527 951.185 436.438 913.987 365.159 915.954H113.908C106.785 916.347 99.6576 915.244 92.9875 912.714C86.3168 910.186 80.2518 906.281 75.1831 901.26C64.2029 888.386 58.3673 871.913 58.7972 854.996L59.2342 119.022C58.9944 102.934 64.4934 87.2873 74.7461 74.8877C78.865 69.9596 83.9747 65.9542 89.7431 63.1309C95.5114 60.308 101.81 58.7305 108.228 58.501H1091.82L1092.04 58.4464ZM598.003 451.723H511.758V501.375C508.208 547.256 490.51 578.991 459.542 600.84C425.341 623.776 384.916 635.635 343.748 634.815C278.204 634.815 250.895 625.147 222.11 605.756C189.994 583.908 173.936 550.697 174.482 498.589V431.514C174.209 421.265 177.93 411.314 184.862 403.759C191.793 396.206 201.389 391.645 211.622 391.039H213.371H317.148H598.767L598.221 451.723H598.003ZM451.457 451.723H316.93H235.001V499.464C234.673 528.96 241.828 546.546 256.192 556.214C273.671 568.067 303.002 576.642 342.656 574.895C380.561 573.474 407.817 566.701 424.967 551.79C440.643 540.866 449.656 523.441 451.676 497.168L451.457 451.723Z" fill="#FEFEFE"/>
<path d="M1597.76 668.735V838.063H1484.92V273.928H1900.03L2004.79 370.609V572.054L1900.03 668.735H1597.76ZM1847.54 370.609H1597.76V572.054H1847.54L1891.84 531.742V410.919L1847.54 370.609Z" fill="#FEFEFE"/>
<path d="M2455.94 688.89H2190L2125.44 838.008H2000.63L2250.47 273.928H2395.48L2645.32 838.008H2520.39L2455.94 688.89ZM2234.35 592.209H2411.6L2323.01 386.722L2234.35 592.209Z" fill="#FEFEFE"/>
<path d="M2826.59 652.622V838.008H2713.8V273.928H3120.72L3225.48 370.609V555.941L3128.81 648.798L3265.79 838.172H3132.78L2999.85 652.785L2826.59 652.622ZM3068.33 370.609H2826.59V555.941H3068.33L3112.69 515.629V410.919L3068.33 370.609Z" fill="#FEFEFE"/>
<path d="M3511.52 838.008V370.609H3302.06V273.928H3833.9V370.609H3624.37V838.008H3511.52Z" fill="#FEFEFE"/>
<path d="M4337.53 273.928H4450.38V838.008H4341.52L4031.28 451.175V838.008H3918.5V273.928H4027.3L4337.53 660.923V273.928Z" fill="#FEFEFE"/>
<path d="M5070.81 273.928V370.609H4700.1V507.6H4982.05V604.281H4700.1V741.272H5078.83V838.008H4587.25V273.928H5070.81Z" fill="#FEFEFE"/>
<path d="M5288.35 652.622V838.008H5175.56V273.928H5582.46L5687.22 370.609V555.941L5590.49 648.798L5727.46 838.172H5594.53L5461.6 652.622H5288.35ZM5530.08 370.609H5288.35V555.941H5530.08L5574.37 515.629V410.919L5530.08 370.609Z" fill="#FEFEFE"/>
<path d="M5929.02 838.008H5816.22V273.928H5929.02V507.6H6025.7L6198.94 273.928H6335.93L6130.45 547.912L6352.05 838.008H6215.06L6037.81 604.281H5929.02V838.008Z" fill="#FEFEFE"/>
<path d="M6396.34 838.008V741.272H6509.14V370.609H6396.34V273.928H6734.99V370.609H6622.19V741.272H6734.99V838.008H6396.34Z" fill="#FEFEFE"/>
<path d="M7266.65 273.928H7379.5V838.008H7270.64L6960.4 451.175V838.008H6847.61V273.928H6956.35L7266.6 660.705L7266.65 273.928Z" fill="#FEFEFE"/>
</g>
</svg>
