<svg width="4801" height="1300" viewBox="0 0 4801 1300" fill="none" xmlns="http://www.w3.org/2000/svg">
<path d="M1881.47 47.2714C1881.47 53.1807 1882.64 59.0898 1882.64 63.8172C1882.64 360.453 1882.64 657.091 1882.64 954.907C1882.64 960.818 1882.64 966.725 1882.64 974.998C1875.63 974.998 1868.6 974.998 1862.74 974.998C1490.43 974.998 1118.12 974.998 745.798 974.998C734.092 974.998 727.066 978.545 718.87 985.633C618.182 1086.09 517.493 1186.54 416.805 1287C413.293 1290.54 408.609 1294.09 402.755 1300C402.755 1070.72 402.755 843.818 402.755 614.545C407.44 614.545 413.293 614.545 417.975 614.545C458.954 614.545 501.103 616.907 540.909 612.18C634.572 600.364 698.968 535.364 714.188 439.633C722.384 387.633 718.87 335.635 695.456 287.181C662.674 219.818 607.644 180.818 533.885 177.271C443.734 173.726 352.411 176.09 261.088 174.908C258.747 174.908 255.235 174.908 251.723 176.09C251.723 440.818 251.723 706.725 251.723 973.818C183.816 973.818 115.909 973.818 49.1738 973.818C49.1738 664.18 49.1738 355.726 49.1738 46.0898C660.331 47.2714 1271.49 47.2714 1881.47 47.2714ZM1417.84 826.091C1431.88 823.725 1461.15 821.364 1489.26 813.091C1577.07 785.907 1637.95 729.18 1656.68 635.818C1674.24 543.633 1649.66 463.271 1574.73 402.998C1482.23 328.545 1335.89 326.181 1239.88 397.091C1133.34 473.907 1112.26 631.091 1194.22 732.725C1248.07 798.907 1320.66 823.725 1417.84 826.091ZM794.974 813.091C844.145 813.091 892.149 813.091 941.324 813.091C941.324 805.998 941.324 800.091 941.324 794.18C942.493 732.726 940.151 671.271 943.663 609.818C947.179 547.18 984.642 505.818 1044.35 496.364C1061.92 493.998 1080.65 496.364 1099.38 496.364C1099.38 446.725 1099.38 399.453 1099.38 348.635C1084.16 349.817 1068.94 349.818 1054.89 353.363C1001.04 366.364 965.91 401.818 944.836 453.818C942.493 458.545 940.151 462.091 937.809 466.818C936.64 466.818 935.471 465.633 934.297 465.633C934.297 430.18 934.297 395.907 934.297 359.271C887.467 359.271 840.634 359.271 793.8 359.271C794.973 509.364 794.974 660.633 794.974 813.091Z" fill="#FEFEFE"/>
<path d="M4767.5 753.999C4686.7 824.908 4593.03 844.999 4491.19 818.999C4378.8 790.635 4307.36 691.361 4313.21 575.546C4319.09 457.361 4399.87 366.362 4515.76 348.636C4583.69 337.999 4649.23 345.09 4710.13 379.361C4725.35 388.819 4739.39 400.635 4754.63 412.454C4732.38 449.088 4710.13 483.362 4690.23 515.273C4666.81 503.454 4645.73 490.454 4622.3 480.999C4598.88 471.546 4573.15 471.546 4547.39 477.454C4497.04 490.454 4466.61 535.362 4468.95 590.908C4471.3 644.088 4508.76 688.999 4559.11 697.273C4611.77 706.726 4655.11 684.273 4696.08 654.726C4700.77 651.181 4704.28 647.635 4710.13 644.088C4728.85 680.726 4747.59 714.999 4766.32 750.454C4767.5 751.635 4767.5 752.819 4767.5 753.999Z" fill="#FEFEFE"/>
<path d="M3161.16 817.821C3161.16 798.908 3161.16 782.366 3161.16 762.274C3156.47 767.001 3152.96 770.548 3149.46 774.093C3095.6 834.366 2996.07 846.182 2931.68 801.274C2860.26 752.821 2847.39 632.274 2934.03 575.548C2977.35 548.366 3025.34 536.548 3074.52 531.821C3097.94 529.455 3121.35 528.274 3144.76 527.093C3150.62 501.093 3136.58 478.639 3109.64 472.728C3067.49 462.093 3027.68 475.093 2990.22 492.821C2978.52 498.728 2966.81 505.821 2953.93 512.912C2936.37 476.274 2918.8 440.821 2900.08 404.182C2937.54 377.001 2978.52 361.639 3021.84 352.183C3078.03 340.366 3134.23 338.001 3189.25 359.274C3257.17 385.274 3296.97 437.274 3299.32 509.366C3302.83 609.821 3300.49 711.455 3300.49 813.093C3300.49 814.274 3299.32 815.455 3299.32 817.821C3254.82 817.821 3207.99 817.821 3161.16 817.821ZM3148.29 619.274C3120.18 614.548 3075.69 621.639 3053.45 633.455C3031.2 645.274 3021.84 664.182 3028.87 685.455C3034.71 704.366 3055.79 715.001 3079.2 711.455C3121.35 705.548 3151.79 665.366 3148.29 619.274Z" fill="#FEFEFE"/>
<path d="M2174.17 309.637C2108.61 309.637 2044.21 309.637 1979.82 309.637C1979.82 264.728 1979.82 219.819 1979.82 174.91C2161.29 174.91 2341.6 174.91 2523.08 174.91C2523.08 219.819 2523.08 263.547 2523.08 308.455C2458.67 308.455 2395.46 308.455 2329.9 308.455C2329.9 479.82 2329.9 647.638 2329.9 817.82C2277.21 817.82 2226.86 817.82 2174.17 817.82C2174.17 648.82 2174.17 479.82 2174.17 309.637Z" fill="#FEFEFE"/>
<path d="M3429.26 817.82C3429.26 706.731 3429.26 595.638 3429.26 484.546C3410.54 484.546 3392.97 484.546 3374.24 484.546C3374.24 443.184 3374.24 404.184 3374.24 362.82C3391.81 362.82 3409.37 362.82 3430.43 362.82C3430.43 348.639 3429.26 334.457 3430.43 321.457C3437.46 251.729 3476.11 206.821 3541.67 185.548C3588.5 170.184 3636.52 167.821 3686.83 173.729C3686.83 217.457 3686.83 260.003 3686.83 302.548C3668.09 303.729 3650.55 303.729 3632.99 306.093C3622.44 307.276 3610.74 312.003 3601.37 316.729C3584.99 326.184 3583.82 342.729 3584.99 361.638C3611.9 361.638 3640.02 361.638 3668.09 361.638C3668.09 403.004 3668.09 443.184 3668.09 483.365C3640.02 483.365 3613.09 483.365 3584.99 483.365C3584.99 595.638 3584.99 705.546 3584.99 816.638C3533.47 817.82 3481.95 817.82 3429.26 817.82Z" fill="#FEFEFE"/>
<path d="M4028.73 172.542C4028.73 217.45 4028.73 259.995 4028.73 301.36C4006.46 303.724 3985.39 303.724 3964.34 308.45C3933.88 314.36 3925.69 329.724 3928.04 361.631C3954.96 361.631 3983.08 361.631 4011.16 361.631C4011.16 402.997 4011.16 443.177 4011.16 484.543C3984.23 484.543 3956.12 484.543 3928.04 484.543C3928.04 596.815 3928.04 706.724 3928.04 817.815C3876.53 817.815 3824.99 817.815 3773.48 817.815C3773.48 706.724 3773.48 596.815 3773.48 484.543C3753.6 484.543 3736.02 484.543 3717.29 484.543C3717.29 443.177 3717.29 404.177 3717.29 362.815C3734.83 362.815 3753.6 362.815 3773.48 362.815C3773.48 354.542 3773.48 347.45 3773.48 341.542C3775.83 256.45 3812.11 209.178 3892.92 183.178C3935.08 168.995 3980.72 167.815 4028.73 172.542Z" fill="#FEFEFE"/>
<path d="M2531.26 354.542C2580.44 354.542 2628.44 354.542 2677.62 354.542C2677.62 389.998 2677.62 424.267 2677.62 459.725C2709.23 386.452 2759.58 342.724 2841.53 346.269C2841.53 399.452 2841.53 449.087 2841.53 499.905C2822.79 499.905 2804.07 497.541 2786.5 499.905C2730.31 508.179 2692.83 544.814 2688.16 602.725C2683.48 655.905 2685.82 710.267 2684.65 764.632C2684.65 782.36 2684.65 798.905 2684.65 817.814C2633.13 817.814 2582.78 817.814 2531.26 817.814C2531.26 664.179 2531.26 509.36 2531.26 354.542Z" fill="#FEFEFE"/>
<path d="M4234.78 817.817C4183.27 817.817 4132.93 817.817 4081.39 817.817C4081.39 662.997 4081.39 509.363 4081.39 354.545C4132.93 354.545 4183.27 354.545 4234.78 354.545C4234.78 509.363 4234.78 662.997 4234.78 817.817Z" fill="#FEFEFE"/>
<path d="M401.584 486.901C401.584 425.448 401.584 366.356 401.584 306.084C405.096 306.084 408.608 304.902 412.12 304.902C433.194 304.902 455.441 306.084 476.516 304.902C540.908 302.539 567.836 345.084 565.498 400.629C563.155 456.174 531.542 486.901 476.516 486.901C451.929 486.901 427.339 486.901 401.584 486.901Z" fill="#FEFEFE"/>
<path d="M4232.44 294.274C4182.09 294.274 4132.93 294.274 4082.58 294.274C4082.58 254.092 4082.58 215.092 4082.58 174.91C4132.93 174.91 4182.09 174.91 4232.44 174.91C4232.44 215.092 4232.44 254.092 4232.44 294.274Z" fill="#FEFEFE"/>
<path d="M1511.5 586.183C1510.33 541.276 1493.94 503.456 1451.79 481.002C1402.62 455.002 1342.9 471.545 1313.64 517.636C1280.86 569.636 1291.39 644.091 1335.89 678.365C1371.01 705.545 1410.82 709.091 1450.62 690.183C1493.94 670.091 1510.33 632.276 1511.5 586.183Z" fill="#FEFEFE"/>
<path d="M1511.5 586.185C1510.33 632.274 1493.94 670.094 1451.79 691.367C1411.99 711.458 1372.18 706.732 1337.06 679.547C1292.56 645.274 1282.02 569.64 1314.81 518.82C1344.07 472.732 1403.79 456.185 1452.95 482.185C1493.94 503.458 1509.16 541.274 1511.5 586.185Z" fill="#FEFEFE"/>
</svg>
