<svg width="128" height="128" viewBox="0 0 128 128" fill="none" xmlns="http://www.w3.org/2000/svg">
<rect width="128" height="128" fill="white"/>
<path d="M38.0531 6.91895H34.5936V10.3784H38.0531V6.91895Z" fill="black"/>
<path d="M48.4314 6.91895H44.972V10.3784H48.4314V6.91895Z" fill="black"/>
<path d="M51.8909 6.91895H48.4314V10.3784H51.8909V6.91895Z" fill="black"/>
<path d="M55.3504 6.91895H51.8909V10.3784H55.3504V6.91895Z" fill="black"/>
<path d="M62.2693 6.91895H58.8099V10.3784H62.2693V6.91895Z" fill="black"/>
<path d="M72.6477 6.91895H69.1882V10.3784H72.6477V6.91895Z" fill="black"/>
<path d="M89.945 6.91895H86.4855V10.3784H89.945V6.91895Z" fill="black"/>
<path d="M41.5127 10.3786L38.0531 10.3784L38.0531 13.8381H41.5127V10.3786Z" fill="black"/>
<path d="M44.972 10.3784L41.5127 10.3786V13.8381H44.9721L44.972 10.3784Z" fill="black"/>
<path d="M48.4314 10.3784H44.972L44.9721 13.8381H48.4314V10.3784Z" fill="black"/>
<path d="M51.8909 10.3784H48.4314V13.8381H51.8909V10.3784Z" fill="black"/>
<path d="M55.3504 10.3784H51.8909V13.8381H55.3504V10.3784Z" fill="black"/>
<path d="M58.8099 10.3784H55.3504V13.8381H58.8099L58.8099 10.3784Z" fill="black"/>
<path d="M72.6477 10.3784H69.1882V13.8381H72.6477V10.3784Z" fill="black"/>
<path d="M76.1072 10.3786L72.6477 10.3784V13.8381H76.1072V10.3786Z" fill="black"/>
<path d="M44.9721 13.8381H41.5127L41.5127 17.2977H44.9721V13.8381Z" fill="black"/>
<path d="M51.8909 13.8381H48.4314L48.4315 17.2977H51.8909V13.8381Z" fill="black"/>
<path d="M58.8099 13.8381H55.3504L55.3504 17.2977H58.8099V13.8381Z" fill="black"/>
<path d="M62.2693 13.8383L58.8099 13.8381V17.2977H62.2693V13.8383Z" fill="black"/>
<path d="M65.7288 13.8383H62.2693V17.2977H65.7288V13.8383Z" fill="black"/>
<path d="M69.1882 13.8381L65.7288 13.8383V17.2977H69.1882L69.1882 13.8381Z" fill="black"/>
<path d="M72.6477 13.8381H69.1882L69.1882 17.2977H72.6477V13.8381Z" fill="black"/>
<path d="M76.1072 13.8381H72.6477V17.2977H76.1072V13.8381Z" fill="black"/>
<path d="M83.0262 13.8383H79.5666V17.2977H83.0262V13.8383Z" fill="black"/>
<path d="M89.945 13.8383H86.4855V17.2977H89.945V13.8383Z" fill="black"/>
<path d="M38.0532 17.2983H34.5938V20.7578H38.0532V17.2983Z" fill="black"/>
<path d="M41.5127 17.2977L38.0532 17.2983V20.7578H41.5127L41.5127 17.2977Z" fill="black"/>
<path d="M48.4315 17.2977H44.9721L44.9722 20.7578H48.4316L48.4315 17.2977Z" fill="black"/>
<path d="M51.8909 17.2977H48.4315L48.4316 20.7578H51.8911L51.8909 17.2977Z" fill="black"/>
<path d="M65.7288 17.2977H62.2693L62.2695 20.7578H65.729L65.7288 17.2977Z" fill="black"/>
<path d="M69.1882 17.2977H65.7288L65.729 20.7578H69.1885L69.1882 17.2977Z" fill="black"/>
<path d="M83.0262 17.2977H79.5666L79.5664 20.7578H83.026L83.0262 17.2977Z" fill="black"/>
<path d="M86.4855 17.2977H83.0262L83.026 20.7578H86.4857L86.4855 17.2977Z" fill="black"/>
<path d="M38.0531 20.7564H34.5936V24.2158H38.0531V20.7564Z" fill="black"/>
<path d="M41.5127 20.7564H38.0531V24.2158H41.5127V20.7564Z" fill="black"/>
<path d="M65.7288 20.7564H62.2694V24.2158H65.7288V20.7564Z" fill="black"/>
<path d="M69.1882 20.7564H65.7288V24.2158H69.1882V20.7564Z" fill="black"/>
<path d="M76.1072 20.7564H72.6477V24.2158H76.1072V20.7564Z" fill="black"/>
<path d="M83.0262 20.7564H79.5666V24.2158H83.0262V20.7564Z" fill="black"/>
<path d="M86.4855 20.7564H83.0262V24.2158H86.4855V20.7564Z" fill="black"/>
<path d="M38.0531 24.2158H34.5936L34.5938 27.6758H38.0532L38.0531 24.2158Z" fill="black"/>
<path d="M41.5127 24.2158H38.0531L38.0532 27.6758H41.5127L41.5127 24.2158Z" fill="black"/>
<path d="M44.9721 24.2163L41.5127 24.2158L41.5127 27.6758H44.9721V24.2163Z" fill="black"/>
<path d="M51.8911 24.2163H48.4316V27.6758H51.8911V24.2163Z" fill="black"/>
<path d="M62.2694 24.2158L58.8101 24.2163V27.6758H62.2695L62.2694 24.2158Z" fill="black"/>
<path d="M69.1882 24.2158H65.7288L65.729 27.6758H69.1885L69.1882 24.2158Z" fill="black"/>
<path d="M79.5666 24.2158H76.1072L76.1069 27.6758H79.5664L79.5666 24.2158Z" fill="black"/>
<path d="M83.0262 24.2158H79.5666L79.5664 27.6758H83.026L83.0262 24.2158Z" fill="black"/>
<path d="M86.4855 24.2158H83.0262L83.026 27.6758H86.4857L86.4855 24.2158Z" fill="black"/>
<path d="M89.9448 24.2163L86.4855 24.2158L86.4857 27.6758H89.9448V24.2163Z" fill="black"/>
<path d="M93.4043 24.2163H89.9448V27.6758H93.4043V24.2163Z" fill="black"/>
<path d="M38.0532 27.6758H34.5938V31.1348H38.0532V27.6758Z" fill="black"/>
<path d="M44.9721 27.6758H41.5127L41.5127 31.1348H44.9721V27.6758Z" fill="black"/>
<path d="M51.8911 27.6758H48.4316V31.1348H51.8911V27.6758Z" fill="black"/>
<path d="M58.8101 27.6758L55.3506 27.6753V31.1348H58.81L58.8101 27.6758Z" fill="black"/>
<path d="M65.729 27.6758H62.2695L62.2695 31.1348H65.729L65.729 27.6758Z" fill="black"/>
<path d="M72.6475 27.6753L69.1885 27.6758L69.188 31.1348H72.6475V27.6753Z" fill="black"/>
<path d="M79.5664 27.6758H76.1069V31.1348H79.5664V27.6758Z" fill="black"/>
<path d="M86.4857 27.6758H83.026L83.0264 31.1348H86.4857V27.6758Z" fill="black"/>
<path d="M93.4043 27.6758H89.9448L89.9448 31.1348H93.4043V27.6758Z" fill="black"/>
<path d="M38.0532 31.1348H34.5938L34.5936 34.5948H38.0531L38.0532 31.1348Z" fill="black"/>
<path d="M48.4316 31.1348H44.9721L44.972 34.5948H48.4314L48.4316 31.1348Z" fill="black"/>
<path d="M58.81 31.1348H55.3506L55.3504 34.5948H58.8099L58.81 31.1348Z" fill="black"/>
<path d="M69.188 31.1348H65.729L65.7288 34.5948H69.1882L69.188 31.1348Z" fill="black"/>
<path d="M72.6475 31.1348H69.188L69.1882 34.5948H72.6477L72.6475 31.1348Z" fill="black"/>
<path d="M76.1069 31.1348H72.6475L72.6477 34.5948H76.1072L76.1069 31.1348Z" fill="black"/>
<path d="M79.5664 31.1348H76.1069L76.1072 34.5948H79.5666L79.5664 31.1348Z" fill="black"/>
<path d="M83.0264 31.1348H79.5664L79.5666 34.5948H83.0262L83.0264 31.1348Z" fill="black"/>
<path d="M93.4043 31.1348H89.9448L89.945 34.5948H93.4045L93.4043 31.1348Z" fill="black"/>
<path d="M10.3774 34.595H6.91797V38.0545H10.3774V34.595Z" fill="black"/>
<path d="M24.2153 34.595H20.7559V38.0545H24.2153V34.595Z" fill="black"/>
<path d="M31.1342 34.595H27.6747V38.0545H31.1342V34.595Z" fill="black"/>
<path d="M34.5936 34.5948L31.1342 34.595V38.0545H34.5937L34.5936 34.5948Z" fill="black"/>
<path d="M38.0531 34.5948H34.5936L34.5937 38.0545H38.0531V34.5948Z" fill="black"/>
<path d="M44.972 34.5948L41.5127 34.595V38.0545H44.9721L44.972 34.5948Z" fill="black"/>
<path d="M51.8909 34.595L48.4314 34.5948L48.4315 38.0545H51.8909V34.595Z" fill="black"/>
<path d="M62.2693 34.595L58.8099 34.5948L58.8099 38.0545H62.2693V34.595Z" fill="black"/>
<path d="M69.1882 34.5948H65.7288V38.0545H69.1882V34.5948Z" fill="black"/>
<path d="M79.5666 34.5948H76.1072L76.1071 38.0545H79.5666V34.5948Z" fill="black"/>
<path d="M83.0262 34.5948H79.5666V38.0545H83.0262V34.5948Z" fill="black"/>
<path d="M86.4855 34.595L83.0262 34.5948V38.0545H86.4855V34.595Z" fill="black"/>
<path d="M89.945 34.5948L86.4855 34.595V38.0545H89.945L89.945 34.5948Z" fill="black"/>
<path d="M96.8639 34.595L93.4045 34.5948L93.4044 38.0545H96.8639V34.595Z" fill="black"/>
<path d="M100.323 34.595H96.8639V38.0545H100.323V34.595Z" fill="black"/>
<path d="M103.783 34.595H100.323V38.0545H103.783V34.595Z" fill="black"/>
<path d="M107.242 34.595H103.783V38.0545H107.242V34.595Z" fill="black"/>
<path d="M110.702 34.595H107.242V38.0545H110.702V34.595Z" fill="black"/>
<path d="M121.08 34.595H117.621V38.0545H121.08V34.595Z" fill="black"/>
<path d="M13.8369 38.0542L10.3774 38.0545L10.3774 41.5137H13.8369V38.0542Z" fill="black"/>
<path d="M27.6747 38.0545H24.2153L24.2153 41.5137H27.6748L27.6747 38.0545Z" fill="black"/>
<path d="M34.5937 38.0545H31.1342L31.1343 41.5137H34.5937L34.5937 38.0545Z" fill="black"/>
<path d="M44.9721 38.0545H41.5127L41.5127 41.5137H44.9721L44.9721 38.0545Z" fill="black"/>
<path d="M48.4315 38.0545H44.9721L44.9721 41.5137H48.4316L48.4315 38.0545Z" fill="black"/>
<path d="M62.2693 38.0545H58.8099L58.8101 41.5137H62.2695L62.2693 38.0545Z" fill="black"/>
<path d="M65.7288 38.0545H62.2693L62.2695 41.5137H65.729L65.7288 38.0545Z" fill="black"/>
<path d="M69.1882 38.0545H65.7288L65.729 41.5137H69.1885L69.1882 38.0545Z" fill="black"/>
<path d="M72.6475 38.0542L69.1882 38.0545L69.1885 41.5137H72.6475V38.0542Z" fill="black"/>
<path d="M83.0262 38.0545H79.5666L79.5664 41.5137H83.026L83.0262 38.0545Z" fill="black"/>
<path d="M86.4855 38.0545H83.0262L83.026 41.5137H86.4857L86.4855 38.0545Z" fill="black"/>
<path d="M89.945 38.0545H86.4855L86.4857 41.5137H89.9448L89.945 38.0545Z" fill="black"/>
<path d="M96.8639 38.0545H93.4044L93.4043 41.5137H96.8638L96.8639 38.0545Z" fill="black"/>
<path d="M110.702 38.0545H107.242L107.242 41.5137H110.702L110.702 38.0545Z" fill="black"/>
<path d="M114.161 38.0542L110.702 38.0545L110.702 41.5137H114.161V38.0542Z" fill="black"/>
<path d="M121.08 38.0545H117.621L117.621 41.5137H121.08L121.08 38.0545Z" fill="black"/>
<path d="M10.3774 41.5137L6.91797 41.5131V44.9725H10.3774L10.3774 41.5137Z" fill="black"/>
<path d="M17.2964 41.5131L13.8369 41.5137L13.8369 44.9725H17.2964V41.5131Z" fill="black"/>
<path d="M24.2153 41.5137L20.7559 41.5131V44.9725H24.2153L24.2153 41.5137Z" fill="black"/>
<path d="M27.6748 41.5137H24.2153L24.2153 44.9725H27.6747L27.6748 41.5137Z" fill="black"/>
<path d="M31.1343 41.5137H27.6748L27.6747 44.9725H31.1342L31.1343 41.5137Z" fill="black"/>
<path d="M34.5937 41.5137H31.1343L31.1342 44.9725H34.5937L34.5937 41.5137Z" fill="black"/>
<path d="M38.0531 41.5131L34.5937 41.5137L34.5937 44.9725H38.0531V41.5131Z" fill="black"/>
<path d="M55.3504 41.5131H51.8909V44.9725H55.3504V41.5131Z" fill="black"/>
<path d="M58.8101 41.5137L55.3504 41.5131V44.9725H58.8099L58.8101 41.5137Z" fill="black"/>
<path d="M62.2695 41.5137H58.8101L58.8099 44.9725H62.2693L62.2695 41.5137Z" fill="black"/>
<path d="M72.6475 41.5137H69.1885L69.1882 44.9725H72.6477L72.6475 41.5137Z" fill="black"/>
<path d="M89.9448 41.5137H86.4857L86.4855 44.9725H89.945L89.9448 41.5137Z" fill="black"/>
<path d="M96.8638 41.5137H93.4043L93.4044 44.9725H96.8639L96.8638 41.5137Z" fill="black"/>
<path d="M110.702 41.5137H107.242L107.242 44.9725H110.702L110.702 41.5137Z" fill="black"/>
<path d="M117.621 41.5137H114.161L114.161 44.9725H117.621L117.621 41.5137Z" fill="black"/>
<path d="M17.2964 44.9725H13.8369L13.8369 48.4326H17.2964L17.2964 44.9725Z" fill="black"/>
<path d="M24.2153 44.9725H20.7559L20.7559 48.4326H24.2153L24.2153 44.9725Z" fill="black"/>
<path d="M34.5937 44.9725H31.1342L31.1343 48.4326H34.5937L34.5937 44.9725Z" fill="black"/>
<path d="M44.9721 44.9731H41.5127V48.4326H44.9721V44.9731Z" fill="black"/>
<path d="M51.8909 44.9725L48.4316 44.9731V48.4326H51.8911L51.8909 44.9725Z" fill="black"/>
<path d="M55.3504 44.9725H51.8909L51.8911 48.4326H55.3506L55.3504 44.9725Z" fill="black"/>
<path d="M65.729 44.9731L62.2693 44.9725L62.2695 48.4326H65.729V44.9731Z" fill="black"/>
<path d="M76.1074 44.9731L72.6477 44.9725L72.6479 48.4326H76.1074V44.9731Z" fill="black"/>
<path d="M79.5664 44.9731H76.1074V48.4326H79.5664V44.9731Z" fill="black"/>
<path d="M86.4855 44.9725L83.0264 44.9731V48.4326H86.4857L86.4855 44.9725Z" fill="black"/>
<path d="M93.4044 44.9725H89.945L89.9448 48.4326H93.4043L93.4044 44.9725Z" fill="black"/>
<path d="M96.8639 44.9725H93.4044L93.4043 48.4326H96.8638L96.8639 44.9725Z" fill="black"/>
<path d="M100.323 44.9731L96.8639 44.9725L96.8638 48.4326H100.323V44.9731Z" fill="black"/>
<path d="M10.3774 48.4321H6.91797V51.8916H10.3774V48.4321Z" fill="black"/>
<path d="M17.2964 48.4326H13.8369V51.8916H17.2964V48.4326Z" fill="black"/>
<path d="M20.7559 48.4326H17.2964V51.8916H20.7559L20.7559 48.4326Z" fill="black"/>
<path d="M31.1343 48.4326L27.6748 48.4321V51.8916H31.1343L31.1343 48.4326Z" fill="black"/>
<path d="M38.0532 48.4321L34.5937 48.4326L34.5938 51.8916H38.0532V48.4321Z" fill="black"/>
<path d="M44.9721 48.4326H41.5127V51.8916H44.9721V48.4326Z" fill="black"/>
<path d="M51.8911 48.4326H48.4316V51.8916H51.8911V48.4326Z" fill="black"/>
<path d="M55.3506 48.4326H51.8911V51.8916H55.3506V48.4326Z" fill="black"/>
<path d="M65.729 48.4326H62.2695V51.8916H65.729V48.4326Z" fill="black"/>
<path d="M86.4857 48.4326H83.0264V51.8916H86.4857V48.4326Z" fill="black"/>
<path d="M89.9448 48.4326H86.4857V51.8916H89.9448L89.9448 48.4326Z" fill="black"/>
<path d="M93.4043 48.4326H89.9448L89.9448 51.8916H93.4043V48.4326Z" fill="black"/>
<path d="M100.323 48.4326H96.8638L96.8638 51.8916H100.323V48.4326Z" fill="black"/>
<path d="M103.783 48.4321L100.323 48.4326V51.8916H103.783V48.4321Z" fill="black"/>
<path d="M110.702 48.4321H107.242V51.8916H110.702V48.4321Z" fill="black"/>
<path d="M121.08 48.4321H117.621V51.8916H121.08V48.4321Z" fill="black"/>
<path d="M10.3774 51.8916H6.91797V55.3515H10.3774V51.8916Z" fill="black"/>
<path d="M17.2964 51.8916H13.8369L13.8369 55.3515H17.2964L17.2964 51.8916Z" fill="black"/>
<path d="M20.7559 51.8916H17.2964L17.2964 55.3515H20.7558L20.7559 51.8916Z" fill="black"/>
<path d="M24.2153 51.8921L20.7559 51.8916L20.7558 55.3515H24.2153V51.8921Z" fill="black"/>
<path d="M27.6748 51.8916L24.2153 51.8921V55.3515H27.6747L27.6748 51.8916Z" fill="black"/>
<path d="M34.5938 51.8916H31.1343L31.1342 55.3515H34.5937L34.5938 51.8916Z" fill="black"/>
<path d="M44.9721 51.8916H41.5127L41.5127 55.3515H44.9721L44.9721 51.8916Z" fill="black"/>
<path d="M48.4316 51.8916H44.9721L44.9721 55.3515H48.4314L48.4316 51.8916Z" fill="black"/>
<path d="M58.8099 51.8921L55.3506 51.8916L55.3504 55.3515H58.8099V51.8921Z" fill="black"/>
<path d="M69.1882 51.8921L65.729 51.8916L65.7288 55.3515H69.1882V51.8921Z" fill="black"/>
<path d="M72.6477 51.8921H69.1882V55.3515H72.6477V51.8921Z" fill="black"/>
<path d="M76.1072 51.8921H72.6477V55.3515H76.1072V51.8921Z" fill="black"/>
<path d="M79.5666 51.8921H76.1072V55.3515H79.5666V51.8921Z" fill="black"/>
<path d="M93.4043 51.8916H89.9448L89.945 55.3515H93.4045L93.4043 51.8916Z" fill="black"/>
<path d="M96.8638 51.8916H93.4043L93.4045 55.3515H96.8639L96.8638 51.8916Z" fill="black"/>
<path d="M103.783 51.8916H100.323L100.323 55.3515H103.783L103.783 51.8916Z" fill="black"/>
<path d="M114.161 51.8921L110.702 51.8916L110.702 55.3515H114.161V51.8921Z" fill="black"/>
<path d="M17.2964 55.3515H13.8369L13.8369 58.8115H17.2964L17.2964 55.3515Z" fill="black"/>
<path d="M24.2153 55.3515H20.7558L20.7559 58.8115H24.2153L24.2153 55.3515Z" fill="black"/>
<path d="M27.6747 55.3515H24.2153L24.2153 58.8115H27.6748L27.6747 55.3515Z" fill="black"/>
<path d="M31.1342 55.3515H27.6747L27.6748 58.8115H31.1343L31.1342 55.3515Z" fill="black"/>
<path d="M44.9721 55.3515H41.5127L41.5127 58.8115H44.9721L44.9721 55.3515Z" fill="black"/>
<path d="M48.4314 55.3515H44.9721L44.9721 58.8115H48.4316L48.4314 55.3515Z" fill="black"/>
<path d="M51.8911 55.3521L48.4314 55.3515L48.4316 58.8115H51.8911V55.3521Z" fill="black"/>
<path d="M58.8099 55.3515H55.3504L55.3506 58.8115H58.81L58.8099 55.3515Z" fill="black"/>
<path d="M62.2695 55.3521L58.8099 55.3515L58.81 58.8115H62.2695V55.3521Z" fill="black"/>
<path d="M69.1882 55.3515H65.7288L65.729 58.8115H69.1885L69.1882 55.3515Z" fill="black"/>
<path d="M72.6477 55.3515H69.1882L69.1885 58.8115H72.6475L72.6477 55.3515Z" fill="black"/>
<path d="M79.5666 55.3515H76.1072L76.1069 58.8115H79.5664L79.5666 55.3515Z" fill="black"/>
<path d="M83.026 55.3521L79.5666 55.3515L79.5664 58.8115H83.026V55.3521Z" fill="black"/>
<path d="M89.945 55.3515L86.4854 55.3521V58.8115H89.9448L89.945 55.3515Z" fill="black"/>
<path d="M93.4045 55.3515H89.945L89.9448 58.8115H93.4043L93.4045 55.3515Z" fill="black"/>
<path d="M96.8639 55.3515H93.4045L93.4043 58.8115H96.8638L96.8639 55.3515Z" fill="black"/>
<path d="M100.323 55.3515H96.8639L96.8638 58.8115H100.323L100.323 55.3515Z" fill="black"/>
<path d="M107.242 55.3521L103.783 55.3515L103.783 58.8115H107.242V55.3521Z" fill="black"/>
<path d="M117.621 55.3521L114.161 55.3515L114.161 58.8115H117.621V55.3521Z" fill="black"/>
<path d="M10.3774 58.811H6.91797V62.2705H10.3774V58.811Z" fill="black"/>
<path d="M13.8369 58.8115L10.3774 58.811V62.2705H13.8369L13.8369 58.8115Z" fill="black"/>
<path d="M17.2964 58.8115H13.8369L13.8369 62.2705H17.2964V58.8115Z" fill="black"/>
<path d="M20.7559 58.8115H17.2964V62.2705H20.7559L20.7559 58.8115Z" fill="black"/>
<path d="M24.2153 58.8115H20.7559L20.7559 62.2705H24.2153V58.8115Z" fill="black"/>
<path d="M34.5937 58.811L31.1343 58.8115L31.1343 62.2705H34.5937V58.811Z" fill="black"/>
<path d="M44.9721 58.8115H41.5127V62.2705H44.9721V58.8115Z" fill="black"/>
<path d="M48.4316 58.8115H44.9721V62.2705H48.4316V58.8115Z" fill="black"/>
<path d="M55.3506 58.8115H51.8911L51.8911 62.2705H55.3506L55.3506 58.8115Z" fill="black"/>
<path d="M58.81 58.8115H55.3506L55.3506 62.2705H58.81V58.8115Z" fill="black"/>
<path d="M62.2695 58.8115H58.81V62.2705H62.2695V58.8115Z" fill="black"/>
<path d="M65.729 58.8115H62.2695V62.2705H65.729L65.729 58.8115Z" fill="black"/>
<path d="M69.1885 58.8115H65.729L65.729 62.2705H69.1885V58.8115Z" fill="black"/>
<path d="M72.6475 58.8115H69.1885V62.2705H72.6475V58.8115Z" fill="black"/>
<path d="M83.026 58.8115H79.5664L79.5664 62.2705H83.026V58.8115Z" fill="black"/>
<path d="M89.9448 58.8115H86.4854V62.2705H89.9448V58.8115Z" fill="black"/>
<path d="M96.8638 58.8115H93.4043L93.4043 62.2705H96.8638V58.8115Z" fill="black"/>
<path d="M100.323 58.8115H96.8638V62.2705H100.323V58.8115Z" fill="black"/>
<path d="M103.783 58.8115H100.323V62.2705H103.783L103.783 58.8115Z" fill="black"/>
<path d="M10.3774 62.2705H6.91797V65.7292H10.3774V62.2705Z" fill="black"/>
<path d="M13.8369 62.2705H10.3774V65.7292H13.8369L13.8369 62.2705Z" fill="black"/>
<path d="M20.7559 62.2705H17.2964L17.2963 65.7292H20.7558L20.7559 62.2705Z" fill="black"/>
<path d="M24.2153 62.2705H20.7559L20.7558 65.7292H24.2153L24.2153 62.2705Z" fill="black"/>
<path d="M27.6747 62.2698L24.2153 62.2705L24.2153 65.7292H27.6747V62.2698Z" fill="black"/>
<path d="M31.1343 62.2705L27.6747 62.2698V65.7292H31.1342L31.1343 62.2705Z" fill="black"/>
<path d="M38.0531 62.2698L34.5937 62.2705L34.5936 65.7292H38.0531V62.2698Z" fill="black"/>
<path d="M41.5127 62.2705L38.0531 62.2698V65.7292H41.5127L41.5127 62.2705Z" fill="black"/>
<path d="M51.8911 62.2705H48.4316L48.4315 65.7292H51.8909L51.8911 62.2705Z" fill="black"/>
<path d="M69.1885 62.2705H65.729L65.7288 65.7292H69.1882L69.1885 62.2705Z" fill="black"/>
<path d="M72.6475 62.2705H69.1885L69.1882 65.7292H72.6477L72.6475 62.2705Z" fill="black"/>
<path d="M76.1072 62.2698L72.6475 62.2705L72.6477 65.7292H76.1072V62.2698Z" fill="black"/>
<path d="M79.5664 62.2705L76.1072 62.2698V65.7292H79.5666L79.5664 62.2705Z" fill="black"/>
<path d="M83.026 62.2705H79.5664L79.5666 65.7292H83.0262L83.026 62.2705Z" fill="black"/>
<path d="M86.4854 62.2705H83.026L83.0262 65.7292H86.4855L86.4854 62.2705Z" fill="black"/>
<path d="M93.4043 62.2705H89.9448L89.945 65.7292H93.4045L93.4043 62.2705Z" fill="black"/>
<path d="M100.323 62.2705H96.8638L96.864 65.7292H100.323L100.323 62.2705Z" fill="black"/>
<path d="M107.242 62.2698L103.783 62.2705L103.783 65.7292H107.242V62.2698Z" fill="black"/>
<path d="M110.702 62.2698H107.242V65.7292H110.702V62.2698Z" fill="black"/>
<path d="M117.621 62.2698H114.161V65.7292H117.621V62.2698Z" fill="black"/>
<path d="M10.3774 65.7292H6.91797V69.1885H10.3774V65.7292Z" fill="black"/>
<path d="M13.8369 65.7292H10.3774V69.1885H13.8369L13.8369 65.7292Z" fill="black"/>
<path d="M24.2153 65.7292H20.7558L20.7559 69.1885H24.2153L24.2153 65.7292Z" fill="black"/>
<path d="M27.6747 65.7292H24.2153L24.2153 69.1885H27.6748L27.6747 65.7292Z" fill="black"/>
<path d="M34.5936 65.7292H31.1342L31.1343 69.1885H34.5937L34.5936 65.7292Z" fill="black"/>
<path d="M38.0531 65.7292H34.5936L34.5937 69.1885H38.0532L38.0531 65.7292Z" fill="black"/>
<path d="M41.5127 65.7292H38.0531L38.0532 69.1885H41.5127L41.5127 65.7292Z" fill="black"/>
<path d="M44.9721 65.729L41.5127 65.7292L41.5127 69.1885H44.9721V65.729Z" fill="black"/>
<path d="M62.2695 65.729H58.8101V69.1885H62.2695V65.729Z" fill="black"/>
<path d="M65.7288 65.7292L62.2695 65.729V69.1885H65.729L65.7288 65.7292Z" fill="black"/>
<path d="M72.6477 65.7292H69.1882L69.188 69.1885H72.6475L72.6477 65.7292Z" fill="black"/>
<path d="M79.5666 65.7292H76.1072L76.1069 69.1885H79.5664L79.5666 65.7292Z" fill="black"/>
<path d="M86.4855 65.7292H83.0262L83.0264 69.1885H86.4857L86.4855 65.7292Z" fill="black"/>
<path d="M89.945 65.7292H86.4855L86.4857 69.1885H89.9448L89.945 65.7292Z" fill="black"/>
<path d="M93.4045 65.7292H89.945L89.9448 69.1885H93.4043L93.4045 65.7292Z" fill="black"/>
<path d="M110.702 65.7292H107.242L107.242 69.1885H110.702L110.702 65.7292Z" fill="black"/>
<path d="M114.161 65.7292H110.702L110.702 69.1885H114.161L114.161 65.7292Z" fill="black"/>
<path d="M117.621 65.7292H114.161L114.161 69.1885H117.621L117.621 65.7292Z" fill="black"/>
<path d="M10.3774 69.1885H6.91797V72.6486H10.3774V69.1885Z" fill="black"/>
<path d="M17.2964 69.1891L13.8369 69.1885L13.8369 72.6486H17.2964V69.1891Z" fill="black"/>
<path d="M20.7559 69.1885L17.2964 69.1891V72.6486H20.7558L20.7559 69.1885Z" fill="black"/>
<path d="M24.2153 69.1885H20.7559L20.7558 72.6486H24.2153L24.2153 69.1885Z" fill="black"/>
<path d="M31.1343 69.1885H27.6748L27.6747 72.6486H31.1342L31.1343 69.1885Z" fill="black"/>
<path d="M34.5937 69.1885H31.1343L31.1342 72.6486H34.5937L34.5937 69.1885Z" fill="black"/>
<path d="M44.9721 69.1885H41.5127L41.5127 72.6486H44.9721L44.9721 69.1885Z" fill="black"/>
<path d="M51.8909 69.1891H48.4315V72.6486H51.8909V69.1891Z" fill="black"/>
<path d="M55.3504 69.1891H51.8909V72.6486H55.3504V69.1891Z" fill="black"/>
<path d="M62.2695 69.1885H58.8101L58.8099 72.6486H62.2693L62.2695 69.1885Z" fill="black"/>
<path d="M65.729 69.1885H62.2695L62.2693 72.6486H65.7288L65.729 69.1885Z" fill="black"/>
<path d="M69.188 69.1885H65.729L65.7288 72.6486H69.1882L69.188 69.1885Z" fill="black"/>
<path d="M79.5664 69.1885H76.1069L76.1071 72.6486H79.5666L79.5664 69.1885Z" fill="black"/>
<path d="M83.0264 69.1885H79.5664L79.5666 72.6486H83.0262L83.0264 69.1885Z" fill="black"/>
<path d="M86.4857 69.1885H83.0264L83.0262 72.6486H86.4855L86.4857 69.1885Z" fill="black"/>
<path d="M89.9448 69.1885H86.4857L86.4855 72.6486H89.945L89.9448 69.1885Z" fill="black"/>
<path d="M93.4043 69.1885H89.9448L89.945 72.6486H93.4045L93.4043 69.1885Z" fill="black"/>
<path d="M96.8639 69.1891L93.4043 69.1885L93.4045 72.6486H96.8639V69.1891Z" fill="black"/>
<path d="M103.783 69.1891H100.323V72.6486H103.783V69.1891Z" fill="black"/>
<path d="M110.702 69.1885H107.242L107.242 72.6486H110.702L110.702 69.1885Z" fill="black"/>
<path d="M117.621 69.1885H114.161L114.161 72.6486H117.621L117.621 69.1885Z" fill="black"/>
<path d="M13.8369 72.6486H10.3774L10.3775 76.1082H13.8369L13.8369 72.6486Z" fill="black"/>
<path d="M17.2964 72.6486H13.8369L13.8369 76.1082H17.2964V72.6486Z" fill="black"/>
<path d="M24.2153 72.6486H20.7558L20.7559 76.1082H24.2153V72.6486Z" fill="black"/>
<path d="M34.5937 72.6486H31.1342L31.1342 76.1082H34.5937V72.6486Z" fill="black"/>
<path d="M44.9721 72.6486H41.5127V76.1082H44.9721V72.6486Z" fill="black"/>
<path d="M51.8909 72.6486H48.4315V76.1082H51.8909V72.6486Z" fill="black"/>
<path d="M55.3504 72.6486H51.8909V76.1082H55.3504V72.6486Z" fill="black"/>
<path d="M62.2693 72.6486H58.8099V76.1082H62.2693V72.6486Z" fill="black"/>
<path d="M69.1882 72.6486H65.7288L65.7288 76.1082H69.1882V72.6486Z" fill="black"/>
<path d="M72.6477 72.6488L69.1882 72.6486V76.1082H72.6477V72.6488Z" fill="black"/>
<path d="M79.5666 72.6486H76.1071V76.1082H79.5666V72.6486Z" fill="black"/>
<path d="M83.0262 72.6486H79.5666V76.1082H83.0262V72.6486Z" fill="black"/>
<path d="M93.4045 72.6486H89.945L89.945 76.1082H93.4045V72.6486Z" fill="black"/>
<path d="M96.8639 72.6486H93.4045V76.1082H96.8639V72.6486Z" fill="black"/>
<path d="M100.323 72.6486H96.8639V76.1082H100.323L100.323 72.6486Z" fill="black"/>
<path d="M103.783 72.6486H100.323L100.323 76.1082H103.783V72.6486Z" fill="black"/>
<path d="M117.621 72.6486H114.161V76.1082H117.621V72.6486Z" fill="black"/>
<path d="M10.3775 76.1082L6.91797 76.1089V79.5683H10.3774L10.3775 76.1082Z" fill="black"/>
<path d="M17.2964 76.1082H13.8369L13.8369 79.5683H17.2964L17.2964 76.1082Z" fill="black"/>
<path d="M27.6748 76.1089L24.2153 76.1082L24.2153 79.5683H27.6748V76.1089Z" fill="black"/>
<path d="M31.1342 76.1082L27.6748 76.1089V79.5683H31.1343L31.1342 76.1082Z" fill="black"/>
<path d="M34.5937 76.1082H31.1342L31.1343 79.5683H34.5937L34.5937 76.1082Z" fill="black"/>
<path d="M41.5127 76.1082L38.0532 76.1089V79.5683H41.5127L41.5127 76.1082Z" fill="black"/>
<path d="M48.4315 76.1082H44.9721L44.9722 79.5683H48.4316L48.4315 76.1082Z" fill="black"/>
<path d="M55.3504 76.1082H51.8909L51.8911 79.5683H55.3506L55.3504 76.1082Z" fill="black"/>
<path d="M58.8099 76.1082H55.3504L55.3506 79.5683H58.81L58.8099 76.1082Z" fill="black"/>
<path d="M72.6477 76.1082H69.1882L69.188 79.5683H72.6475L72.6477 76.1082Z" fill="black"/>
<path d="M76.1071 76.1082H72.6477L72.6475 79.5683H76.1074L76.1071 76.1082Z" fill="black"/>
<path d="M79.5666 76.1082H76.1071L76.1074 79.5683H79.5664L79.5666 76.1082Z" fill="black"/>
<path d="M100.323 76.1082H96.8639L96.8638 79.5683H100.323L100.323 76.1082Z" fill="black"/>
<path d="M103.783 76.1082H100.323L100.323 79.5683H103.783L103.783 76.1082Z" fill="black"/>
<path d="M107.242 76.1089L103.783 76.1082L103.783 79.5683H107.242V76.1089Z" fill="black"/>
<path d="M110.702 76.1089H107.242V79.5683H110.702V76.1089Z" fill="black"/>
<path d="M10.3774 79.5683H6.91797V83.0277H10.3774V79.5683Z" fill="black"/>
<path d="M20.7558 79.5681L17.2964 79.5683L17.2963 83.0277H20.7558V79.5681Z" fill="black"/>
<path d="M27.6748 79.5683H24.2153L24.2153 83.0277H27.6747L27.6748 79.5683Z" fill="black"/>
<path d="M51.8911 79.5683H48.4316L48.4315 83.0277H51.8909L51.8911 79.5683Z" fill="black"/>
<path d="M65.7288 79.5681H62.2694V83.0277H65.7288V79.5681Z" fill="black"/>
<path d="M69.188 79.5683L65.7288 79.5681V83.0277H69.1882L69.188 79.5683Z" fill="black"/>
<path d="M76.1074 79.5683H72.6475L72.6477 83.0277H76.1072L76.1074 79.5683Z" fill="black"/>
<path d="M86.4855 79.5681H83.0262V83.0277H86.4855V79.5681Z" fill="black"/>
<path d="M100.323 79.5683H96.8638L96.864 83.0277H100.323L100.323 79.5683Z" fill="black"/>
<path d="M110.702 79.5683H107.242L107.242 83.0277H110.702L110.702 79.5683Z" fill="black"/>
<path d="M114.161 79.5681L110.702 79.5683L110.702 83.0277H114.161V79.5681Z" fill="black"/>
<path d="M117.621 79.5681H114.161V83.0277H117.621V79.5681Z" fill="black"/>
<path d="M24.2153 83.0277H20.7558L20.7559 86.4862H24.2153L24.2153 83.0277Z" fill="black"/>
<path d="M27.6747 83.0277H24.2153L24.2153 86.4862H27.6748L27.6747 83.0277Z" fill="black"/>
<path d="M31.1343 83.0269L27.6747 83.0277L27.6748 86.4862H31.1343V83.0269Z" fill="black"/>
<path d="M34.5937 83.0269H31.1343V86.4862H34.5937V83.0269Z" fill="black"/>
<path d="M48.4315 83.0277L44.9722 83.0269V86.4862H48.4316L48.4315 83.0277Z" fill="black"/>
<path d="M51.8909 83.0277H48.4315L48.4316 86.4862H51.8911L51.8909 83.0277Z" fill="black"/>
<path d="M58.81 83.0269H55.3506V86.4862H58.81V83.0269Z" fill="black"/>
<path d="M65.7288 83.0277H62.2694L62.2695 86.4862H65.729L65.7288 83.0277Z" fill="black"/>
<path d="M72.6477 83.0277H69.1882L69.188 86.4862H72.6475L72.6477 83.0277Z" fill="black"/>
<path d="M76.1072 83.0277H72.6477L72.6475 86.4862H76.1074L76.1072 83.0277Z" fill="black"/>
<path d="M83.0262 83.0277L79.5664 83.0269V86.4862H83.026L83.0262 83.0277Z" fill="black"/>
<path d="M89.9448 83.0269L86.4855 83.0277L86.4854 86.4862H89.9448V83.0269Z" fill="black"/>
<path d="M93.4043 83.0269H89.9448V86.4862H93.4043V83.0269Z" fill="black"/>
<path d="M96.864 83.0277L93.4043 83.0269V86.4862H96.8638L96.864 83.0277Z" fill="black"/>
<path d="M114.161 83.0277H110.702L110.702 86.4862H114.161L114.161 83.0277Z" fill="black"/>
<path d="M117.621 83.0277H114.161L114.161 86.4862H117.621L117.621 83.0277Z" fill="black"/>
<path d="M20.7559 86.4862L17.2964 86.4858V89.9453H20.7559L20.7559 86.4862Z" fill="black"/>
<path d="M24.2153 86.4862H20.7559L20.7559 89.9453H24.2153V86.4862Z" fill="black"/>
<path d="M27.6748 86.4862H24.2153V89.9453H27.6748V86.4862Z" fill="black"/>
<path d="M34.5937 86.4862H31.1343L31.1343 89.9453H34.5937V86.4862Z" fill="black"/>
<path d="M38.0532 86.4858L34.5937 86.4862V89.9453H38.0532V86.4858Z" fill="black"/>
<path d="M44.9722 86.4862L41.5127 86.4858V89.9453H44.9721L44.9722 86.4862Z" fill="black"/>
<path d="M55.3506 86.4862H51.8911L51.8911 89.9453H55.3506L55.3506 86.4862Z" fill="black"/>
<path d="M69.188 86.4862H65.729L65.729 89.9453H69.1885L69.188 86.4862Z" fill="black"/>
<path d="M72.6475 86.4862H69.188L69.1885 89.9453H72.6475V86.4862Z" fill="black"/>
<path d="M76.1074 86.4862H72.6475V89.9453H76.1074V86.4862Z" fill="black"/>
<path d="M79.5664 86.4862H76.1074V89.9453H79.5664L79.5664 86.4862Z" fill="black"/>
<path d="M83.026 86.4862H79.5664L79.5664 89.9453H83.026V86.4862Z" fill="black"/>
<path d="M86.4854 86.4862H83.026V89.9453H86.4857L86.4854 86.4862Z" fill="black"/>
<path d="M96.8638 86.4862H93.4043L93.4043 89.9453H96.8638V86.4862Z" fill="black"/>
<path d="M100.323 86.4858L96.8638 86.4862V89.9453H100.323V86.4858Z" fill="black"/>
<path d="M107.242 86.4858H103.783V89.9453H107.242V86.4858Z" fill="black"/>
<path d="M110.702 86.4862L107.242 86.4858V89.9453H110.702V86.4862Z" fill="black"/>
<path d="M117.621 86.4862H114.161L114.161 89.9453H117.621V86.4862Z" fill="black"/>
<path d="M121.08 86.4858L117.621 86.4862V89.9453H121.08V86.4858Z" fill="black"/>
<path d="M10.3774 89.9458H6.91797V93.4053H10.3774V89.9458Z" fill="black"/>
<path d="M13.8369 89.9458H10.3774V93.4053H13.8369V89.9458Z" fill="black"/>
<path d="M17.2964 89.9453L13.8369 89.9458V93.4053H17.2964L17.2964 89.9453Z" fill="black"/>
<path d="M24.2153 89.9453H20.7559L20.7559 93.4053H24.2153L24.2153 89.9453Z" fill="black"/>
<path d="M31.1343 89.9453H27.6748L27.6747 93.4053H31.1342L31.1343 89.9453Z" fill="black"/>
<path d="M34.5937 89.9453H31.1343L31.1342 93.4053H34.5937L34.5937 89.9453Z" fill="black"/>
<path d="M44.9721 89.9453H41.5127L41.5127 93.4053H44.9721L44.9721 89.9453Z" fill="black"/>
<path d="M48.4314 89.9458L44.9721 89.9453L44.9721 93.4053H48.4314V89.9458Z" fill="black"/>
<path d="M55.3506 89.9453H51.8911L51.8909 93.4053H55.3504L55.3506 89.9453Z" fill="black"/>
<path d="M58.8099 89.9458L55.3506 89.9453L55.3504 93.4053H58.8099V89.9458Z" fill="black"/>
<path d="M62.2693 89.9458H58.8099V93.4053H62.2693V89.9458Z" fill="black"/>
<path d="M65.729 89.9453L62.2693 89.9458V93.4053H65.7288L65.729 89.9453Z" fill="black"/>
<path d="M69.1885 89.9453H65.729L65.7288 93.4053H69.1882L69.1885 89.9453Z" fill="black"/>
<path d="M79.5664 89.9453H76.1074L76.1071 93.4053H79.5666L79.5664 89.9453Z" fill="black"/>
<path d="M83.026 89.9453H79.5664L79.5666 93.4053H83.0262L83.026 89.9453Z" fill="black"/>
<path d="M86.4857 89.9453H83.026L83.0262 93.4053H86.4855L86.4857 89.9453Z" fill="black"/>
<path d="M93.4043 89.9453L89.945 89.9458V93.4053H93.4045L93.4043 89.9453Z" fill="black"/>
<path d="M96.8638 89.9453H93.4043L93.4045 93.4053H96.8639L96.8638 89.9453Z" fill="black"/>
<path d="M100.323 89.9453H96.8638L96.8639 93.4053H100.323L100.323 89.9453Z" fill="black"/>
<path d="M103.783 89.9453H100.323L100.323 93.4053H103.783L103.783 89.9453Z" fill="black"/>
<path d="M107.242 89.9453H103.783L103.783 93.4053H107.242L107.242 89.9453Z" fill="black"/>
<path d="M110.702 89.9453H107.242L107.242 93.4053H110.702L110.702 89.9453Z" fill="black"/>
<path d="M117.621 89.9453H114.161L114.161 93.4053H117.621L117.621 89.9453Z" fill="black"/>
<path d="M38.0532 93.4058L34.5937 93.4053L34.5938 96.8652H38.0532V93.4058Z" fill="black"/>
<path d="M44.9721 93.4053H41.5127L41.5127 96.8652H44.9721L44.9721 93.4053Z" fill="black"/>
<path d="M48.4314 93.4053H44.9721L44.9721 96.8652H48.4316L48.4314 93.4053Z" fill="black"/>
<path d="M55.3504 93.4053H51.8909L51.8911 96.8652H55.3506L55.3504 93.4053Z" fill="black"/>
<path d="M58.8099 93.4053H55.3504L55.3506 96.8652H58.81L58.8099 93.4053Z" fill="black"/>
<path d="M62.2693 93.4053H58.8099L58.81 96.8652H62.2695L62.2693 93.4053Z" fill="black"/>
<path d="M65.7288 93.4053H62.2693L62.2695 96.8652H65.729L65.7288 93.4053Z" fill="black"/>
<path d="M69.1882 93.4053H65.7288L65.729 96.8652H69.1885L69.1882 93.4053Z" fill="black"/>
<path d="M83.0262 93.4053H79.5666L79.5664 96.8652H83.026L83.0262 93.4053Z" fill="black"/>
<path d="M86.4855 93.4053H83.0262L83.026 96.8652H86.4857L86.4855 93.4053Z" fill="black"/>
<path d="M89.945 93.4053H86.4855L86.4857 96.8652H89.9448L89.945 93.4053Z" fill="black"/>
<path d="M93.4045 93.4053H89.945L89.9448 96.8652H93.4043L93.4045 93.4053Z" fill="black"/>
<path d="M107.242 93.4053H103.783L103.783 96.8652H107.242L107.242 93.4053Z" fill="black"/>
<path d="M114.161 93.4053H110.702L110.702 96.8652H114.161L114.161 93.4053Z" fill="black"/>
<path d="M38.0532 96.8652H34.5938V100.324H38.0532V96.8652Z" fill="black"/>
<path d="M41.5127 96.8652H38.0532V100.324H41.5127L41.5127 96.8652Z" fill="black"/>
<path d="M44.9721 96.8652H41.5127L41.5127 100.324H44.9721V96.8652Z" fill="black"/>
<path d="M58.81 96.8652H55.3506L55.3506 100.324H58.81V96.8652Z" fill="black"/>
<path d="M62.2695 96.8652H58.81V100.324H62.2695V96.8652Z" fill="black"/>
<path d="M72.6475 96.8647L69.1885 96.8652L69.188 100.324H72.6475V96.8647Z" fill="black"/>
<path d="M93.4043 96.8652H89.9448L89.9448 100.324H93.4043V96.8652Z" fill="black"/>
<path d="M100.323 96.8647H96.8638V100.324H100.323V96.8647Z" fill="black"/>
<path d="M107.242 96.8652H103.783V100.324H107.242V96.8652Z" fill="black"/>
<path d="M110.702 96.8652H107.242V100.324H110.702V96.8652Z" fill="black"/>
<path d="M48.4314 100.325L44.9721 100.324L44.972 103.784H48.4314V100.325Z" fill="black"/>
<path d="M58.81 100.324H55.3506L55.3504 103.784H58.8099L58.81 100.324Z" fill="black"/>
<path d="M62.2695 100.324H58.81L58.8099 103.784H62.2693L62.2695 100.324Z" fill="black"/>
<path d="M65.7288 100.325L62.2695 100.324L62.2693 103.784H65.7288V100.325Z" fill="black"/>
<path d="M76.1072 100.325L72.6475 100.324L72.6477 103.784H76.1072V100.325Z" fill="black"/>
<path d="M86.4855 100.325H83.0262V103.784H86.4855V100.325Z" fill="black"/>
<path d="M93.4043 100.324H89.9448L89.945 103.784H93.4045L93.4043 100.324Z" fill="black"/>
<path d="M107.242 100.324H103.783L103.783 103.784H107.242L107.242 100.324Z" fill="black"/>
<path d="M121.08 100.325H117.621V103.784H121.08V100.325Z" fill="black"/>
<path d="M38.0532 103.784H34.5938V107.243H38.0532V103.784Z" fill="black"/>
<path d="M48.4314 103.784H44.972L44.9722 107.243H48.4316L48.4314 103.784Z" fill="black"/>
<path d="M51.8911 103.784L48.4314 103.784L48.4316 107.243H51.8911V103.784Z" fill="black"/>
<path d="M55.3504 103.784L51.8911 103.784V107.243H55.3506L55.3504 103.784Z" fill="black"/>
<path d="M58.8099 103.784H55.3504L55.3506 107.243H58.81L58.8099 103.784Z" fill="black"/>
<path d="M65.7288 103.784H62.2693L62.2695 107.243H65.729L65.7288 103.784Z" fill="black"/>
<path d="M76.1072 103.784H72.6477L72.6479 107.243H76.1074L76.1072 103.784Z" fill="black"/>
<path d="M86.4855 103.784H83.0262L83.0264 107.243H86.4857L86.4855 103.784Z" fill="black"/>
<path d="M93.4045 103.784H89.945L89.9448 107.243H93.4043L93.4045 103.784Z" fill="black"/>
<path d="M96.8638 103.784L93.4045 103.784L93.4043 107.243H96.8638V103.784Z" fill="black"/>
<path d="M100.323 103.784H96.8638V107.243H100.323V103.784Z" fill="black"/>
<path d="M103.783 103.784L100.323 103.784V107.243H103.783L103.783 103.784Z" fill="black"/>
<path d="M107.242 103.784H103.783L103.783 107.243H107.242L107.242 103.784Z" fill="black"/>
<path d="M110.702 103.784L107.242 103.784L107.242 107.243H110.702V103.784Z" fill="black"/>
<path d="M121.08 103.784H117.621L117.621 107.243H121.08L121.08 103.784Z" fill="black"/>
<path d="M41.5127 107.243L38.0532 107.243L38.0531 110.702H41.5127V107.243Z" fill="black"/>
<path d="M44.9722 107.243L41.5127 107.243V110.702H44.9721L44.9722 107.243Z" fill="black"/>
<path d="M51.8911 107.243H48.4316L48.4315 110.702H51.8909L51.8911 107.243Z" fill="black"/>
<path d="M55.3506 107.243H51.8911L51.8909 110.702H55.3504L55.3506 107.243Z" fill="black"/>
<path d="M72.6479 107.243L69.1882 107.243V110.702H72.6477L72.6479 107.243Z" fill="black"/>
<path d="M76.1074 107.243H72.6479L72.6477 110.702H76.1072L76.1074 107.243Z" fill="black"/>
<path d="M79.5666 107.243L76.1074 107.243L76.1072 110.702H79.5666V107.243Z" fill="black"/>
<path d="M89.9448 107.243H86.4857L86.4855 110.702H89.945L89.9448 107.243Z" fill="black"/>
<path d="M100.323 107.243H96.8638L96.864 110.702H100.323L100.323 107.243Z" fill="black"/>
<path d="M103.783 107.243H100.323L100.323 110.702H103.783L103.783 107.243Z" fill="black"/>
<path d="M107.242 107.243H103.783L103.783 110.702H107.242L107.242 107.243Z" fill="black"/>
<path d="M110.702 107.243H107.242L107.242 110.702H110.702L110.702 107.243Z" fill="black"/>
<path d="M114.161 107.243L110.702 107.243L110.702 110.702H114.161V107.243Z" fill="black"/>
<path d="M117.621 107.243L114.161 107.243V110.702H117.621L117.621 107.243Z" fill="black"/>
<path d="M41.5127 110.702H38.0531V114.162H41.5127V110.702Z" fill="black"/>
<path d="M51.8909 110.702H48.4315V114.162H51.8909V110.702Z" fill="black"/>
<path d="M58.8099 110.703L55.3504 110.702L55.3504 114.162H58.8099V110.703Z" fill="black"/>
<path d="M62.2693 110.703H58.8099V114.162H62.2693V110.703Z" fill="black"/>
<path d="M72.6477 110.702H69.1882V114.162H72.6477V110.702Z" fill="black"/>
<path d="M79.5666 110.702H76.1072L76.1071 114.162H79.5666V110.702Z" fill="black"/>
<path d="M83.0262 110.703L79.5666 110.702V114.162H83.0262V110.703Z" fill="black"/>
<path d="M96.864 110.702L93.4044 110.703V114.162H96.8639L96.864 110.702Z" fill="black"/>
<path d="M100.323 110.702H96.864L96.8639 114.162H100.323V110.702Z" fill="black"/>
<path d="M103.783 110.702H100.323V114.162H103.783V110.702Z" fill="black"/>
<path d="M107.242 110.702H103.783V114.162H107.242V110.702Z" fill="black"/>
<path d="M110.702 110.702H107.242V114.162H110.702V110.702Z" fill="black"/>
<path d="M48.4315 114.162L44.9722 114.163V117.622H48.4316L48.4315 114.162Z" fill="black"/>
<path d="M51.8909 114.162H48.4315L48.4316 117.622H51.8911L51.8909 114.162Z" fill="black"/>
<path d="M55.3504 114.162H51.8909L51.8911 117.622H55.3506L55.3504 114.162Z" fill="black"/>
<path d="M62.2693 114.162H58.8099L58.8101 117.622H62.2695L62.2693 114.162Z" fill="black"/>
<path d="M65.729 114.163L62.2693 114.162L62.2695 117.622H65.729V114.163Z" fill="black"/>
<path d="M69.1882 114.162L65.729 114.163V117.622H69.1885L69.1882 114.162Z" fill="black"/>
<path d="M72.6477 114.162H69.1882L69.1885 117.622H72.6475L72.6477 114.162Z" fill="black"/>
<path d="M83.0262 114.162H79.5666L79.5664 117.622H83.026L83.0262 114.162Z" fill="black"/>
<path d="M89.9448 114.163H86.4854V117.622H89.9448V114.163Z" fill="black"/>
<path d="M93.4044 114.162L89.9448 114.163V117.622H93.4043L93.4044 114.162Z" fill="black"/>
<path d="M100.323 114.162H96.8639L96.8638 117.622H100.323L100.323 114.162Z" fill="black"/>
<path d="M38.0532 117.622H34.5938V121.081H38.0532V117.622Z" fill="black"/>
<path d="M44.9722 117.622L41.5127 117.622V121.081H44.9721L44.9722 117.622Z" fill="black"/>
<path d="M69.1885 117.622H65.729L65.729 121.081H69.1885V117.622Z" fill="black"/>
<path d="M76.1074 117.622L72.6475 117.622L72.6479 121.081H76.1074V117.622Z" fill="black"/>
<path d="M79.5664 117.622L76.1074 117.622V121.081H79.5664L79.5664 117.622Z" fill="black"/>
<path d="M83.026 117.622H79.5664L79.5664 121.081H83.026V117.622Z" fill="black"/>
<path d="M86.4854 117.622H83.026V121.081H86.4857L86.4854 117.622Z" fill="black"/>
<path d="M89.9448 117.622H86.4854L86.4857 121.081H89.9448V117.622Z" fill="black"/>
<path d="M93.4043 117.622H89.9448V121.081H93.4043V117.622Z" fill="black"/>
<path d="M96.8638 117.622H93.4043V121.081H96.8638L96.8638 117.622Z" fill="black"/>
<path d="M100.323 117.622H96.8638L96.8638 121.081H100.323V117.622Z" fill="black"/>
<path d="M110.702 117.622H107.242V121.081H110.702V117.622Z" fill="black"/>
<path d="M121.08 117.622H117.621V121.081H121.08V117.622Z" fill="black"/>
<path d="M6.91797 6.91895V31.1352H31.1342V6.91895H6.91797ZM27.5018 27.5027H10.5504V10.5514H27.5018V27.5027Z" fill="black"/>
<path d="M96.864 6.91895V31.1352H121.08V6.91895H96.864ZM117.448 27.5027H100.496V10.5514H117.448V27.5027Z" fill="black"/>
<path d="M6.91797 96.8647V121.081H31.1342V96.8647H6.91797ZM27.5018 117.449H10.5504V100.497H27.5018V117.449Z" fill="black"/>
<path d="M24.2153 13.8383H13.8369V24.2167H24.2153V13.8383Z" fill="black"/>
<path d="M114.161 13.8383H103.783V24.2167H114.161V13.8383Z" fill="black"/>
<path d="M24.2153 103.784H13.8369V114.162H24.2153V103.784Z" fill="black"/>
</svg>
