<svg width="4800" height="1300" viewBox="0 0 4800 1300" fill="none" xmlns="http://www.w3.org/2000/svg">
<path d="M545.32 334.721C364.036 420.939 183.486 506.431 2.93578 592.647C2.20184 420.215 0.733944 248.504 0 76.0703C182.018 162.288 363.303 248.504 545.32 334.721Z" fill="#FEFEFE"/>
<path d="M831.568 74.6248C831.568 147.076 831.568 220.252 831.568 292.703C554.872 195.618 277.439 97.8092 0.742188 0C277.439 24.6334 554.872 49.9912 831.568 74.6248Z" fill="#FEFEFE"/>
<path d="M289.18 591.929C469.732 505.713 651.016 419.493 831.564 333.277C831.564 506.437 831.564 678.869 831.564 852.029C651.016 765.085 469.732 678.869 289.18 591.929Z" fill="#FEFEFE"/>
<path d="M832.292 926.653C555.592 902.017 278.162 877.385 1.46484 852.753C1.46484 779.577 1.46484 706.401 1.46484 633.949C278.162 731.033 554.86 828.841 832.292 926.653Z" fill="#FEFEFE"/>
<path d="M1040 617.542C1117.8 519.732 1196.33 421.924 1274.86 323.39C1198.53 323.39 1122.2 323.39 1045.87 323.39C1045.87 296.583 1045.87 270.5 1045.87 243.693C1162.57 243.693 1279.26 242.969 1395.96 242.969C1395.96 268.327 1395.96 293.685 1395.96 319.767C1315.96 419.75 1235.96 519.008 1156.7 618.99C1236.7 618.99 1316.7 618.99 1396.7 618.99C1396.7 645.074 1396.7 671.878 1396.7 698.686C1277.8 698.686 1158.9 698.686 1040.73 698.686C1040 671.154 1040 644.35 1040 617.542Z" fill="#FEFEFE"/>
<path d="M1417.99 529.154C1417.99 511.765 1418.72 432.794 1481.11 383.527C1525.14 348.75 1575.05 348.75 1593.4 348.75C1611.75 348.75 1655.05 349.474 1695.42 377.73C1764.41 426.273 1765.88 513.939 1765.88 528.429C1765.88 547.266 1767.34 634.931 1697.62 682.751C1655.05 711.731 1608.81 710.283 1590.46 708.831C1573.58 709.555 1523.68 709.555 1480.37 675.503C1417.99 627.687 1417.99 549.44 1417.99 529.154ZM1671.2 527.704C1671.2 507.418 1671.2 461.774 1638.9 440.038C1620.56 426.997 1598.54 426.273 1592.66 426.273C1587.53 426.273 1570.65 425.548 1555.97 432.794C1512.66 453.08 1511.2 520.46 1510.46 528.429C1510.46 547.266 1509 603.055 1551.56 626.963C1576.52 641.451 1611.02 641.451 1635.97 625.515C1671.2 601.603 1671.2 555.236 1671.2 527.704Z" fill="#FEFEFE"/>
<path d="M1812.11 362.373C1840.73 362.373 1868.62 361.649 1897.25 361.649C1897.25 380.486 1897.98 399.323 1897.98 418.161C1901.65 410.191 1916.33 379.037 1952.29 363.098C1977.25 351.506 2000 352.954 2010.27 354.404C2010.27 384.109 2010.27 414.538 2010.27 444.243C2008.81 444.243 2005.87 443.519 2002.93 443.519C2002.2 443.519 2002.2 443.519 2001.47 443.519C1961.1 440.62 1939.82 452.213 1939.82 452.213C1934.68 455.111 1919.27 463.08 1911.93 479.744C1906.79 491.336 1905.32 506.551 1903.12 521.766C1903.12 521.766 1903.12 524.664 1902.39 527.562C1900.18 552.92 1900.92 665.219 1901.65 697.823C1872.29 697.823 1842.93 697.823 1813.58 697.823C1812.84 586.247 1812.11 473.948 1812.11 362.373Z" fill="#FEFEFE"/>
<path d="M2127.71 658.071C2127.71 671.111 2127.71 684.879 2127.71 697.919C2098.36 697.919 2069 697.919 2040.37 697.919C2040.37 546.497 2040.37 395.074 2040.37 244.375C2070.46 244.375 2099.82 244.375 2129.92 244.375C2129.92 297.265 2130.65 350.879 2130.65 403.768C2137.26 394.349 2152.67 376.237 2178.36 364.644C2200.37 355.225 2219.46 355.225 2229.73 355.225C2232.67 355.225 2264.23 355.95 2292.85 370.44C2347.9 397.972 2364.04 461.729 2368.45 479.117C2386.8 550.844 2366.98 642.131 2307.53 684.155C2273.04 708.787 2233.4 709.511 2233.4 709.511C2204.04 710.235 2182.02 700.819 2176.15 698.643C2149.73 685.603 2135.05 667.491 2127.71 658.071ZM2266.43 465.351C2256.15 448.688 2236.34 433.473 2211.38 431.299C2207.71 431.299 2184.23 429.126 2162.21 443.616C2128.45 466.801 2127.71 511.72 2126.98 529.109C2126.98 539.976 2125.51 596.487 2164.41 622.571C2179.82 632.715 2195.97 634.887 2198.9 634.887C2202.58 634.887 2228.26 637.059 2248.82 621.123C2273.04 603.007 2275.97 574.027 2278.9 547.946C2279.64 541.425 2281.11 524.037 2277.44 502.302C2275.24 487.087 2273.77 476.219 2266.43 465.351Z" fill="#FEFEFE"/>
<path d="M2618.71 697.848C2616.51 694.948 2614.3 690.604 2612.84 686.256C2609.17 676.112 2609.17 667.416 2609.9 661.62C2604.03 668.144 2594.49 676.112 2582.01 684.08C2571.74 690.604 2547.52 706.54 2515.22 709.44C2482.2 712.336 2433.02 702.196 2409.54 664.52C2394.86 641.336 2395.59 617.428 2395.59 605.836C2395.59 595.692 2396.32 568.884 2412.47 546.424C2438.89 509.474 2497.61 494.984 2538.71 494.259C2557.79 494.259 2583.48 496.432 2598.89 479.769C2604.76 473.972 2606.97 466.728 2608.44 462.38C2607.7 456.584 2604.03 442.818 2591.55 433.4C2581.28 425.43 2569.54 426.155 2553.39 426.155C2535.04 426.879 2520.36 426.879 2507.88 437.022C2494.67 447.89 2491 463.83 2490.27 471.074C2461.64 471.074 2432.29 471.074 2403.66 471.799C2403.66 458.758 2405.86 425.43 2430.08 397.899C2441.1 384.858 2452.84 377.612 2460.91 373.265C2499.81 350.806 2540.18 352.254 2565.13 354.428C2589.35 355.877 2640.73 357.326 2671.55 389.929C2675.22 394.276 2684.76 404.419 2690.64 421.083C2694.3 432.675 2695.04 442.818 2695.77 463.83C2695.77 473.972 2695.77 487.738 2695.04 504.402C2695.77 558.016 2697.24 611.632 2697.98 664.52C2697.98 666.692 2699.44 671.764 2703.11 677.56C2707.52 682.632 2711.92 684.808 2714.12 685.532C2714.12 689.876 2714.12 693.5 2714.12 697.848C2683.3 697.848 2651 697.848 2618.71 697.848ZM2608.44 534.832C2606.23 536.281 2601.83 539.179 2597.42 542.077C2576.14 552.944 2562.93 549.322 2532.1 556.567C2516.69 560.19 2509.35 562.363 2502.01 568.159C2486.6 581.2 2485.86 600.764 2485.86 602.212C2485.86 605.108 2485.13 623.224 2499.08 636.264C2518.16 654.376 2548.98 644.232 2557.79 641.336C2563.66 639.16 2589.35 630.468 2601.1 607.284C2605.5 597.864 2607.7 586.272 2608.44 582.648C2608.44 580.476 2609.17 575.404 2609.17 559.465C2608.44 549.322 2608.44 541.352 2608.44 534.832Z" fill="#FEFEFE"/>
<path d="M2735.42 590.695C2765.51 590.695 2795.61 590.695 2825.7 590.695C2826.43 595.767 2831.57 620.399 2853.59 634.163C2868.27 642.859 2882.94 642.859 2897.62 642.135C2904.96 642.135 2950.47 639.963 2957.07 616.775C2959.27 608.807 2956.34 600.839 2954.87 599.387C2947.53 583.451 2926.98 579.827 2896.15 572.583C2865.33 565.337 2849.18 560.989 2832.3 555.918C2796.34 543.601 2772.12 535.632 2757.44 512.447C2741.29 487.814 2744.96 458.833 2745.7 452.313C2746.43 448.69 2748.63 432.026 2759.64 413.189C2779.46 379.861 2810.28 366.096 2822.03 361.024C2854.32 347.258 2882.21 349.432 2913.77 351.605C2945.33 353.779 2965.15 361.024 2977.62 367.545C2993.03 374.79 3001.84 382.759 3005.51 387.107C3006.98 388.555 3014.32 396.525 3021.66 408.842C3032.67 429.128 3036.34 449.415 3037.81 464.629C3008.45 464.629 2978.36 464.629 2949 464.629C2948.27 456.66 2946.06 444.343 2937.25 434.2C2925.51 421.883 2907.9 421.159 2891.75 419.71C2878.54 418.985 2866.8 420.434 2859.46 422.608C2847.71 425.506 2843.31 431.302 2842.58 432.751C2841.11 434.924 2835.24 441.445 2835.97 450.864C2835.97 455.935 2838.17 459.558 2838.91 461.007C2845.51 473.323 2863.13 477.671 2893.95 484.916C2909.37 488.538 2917.44 489.987 2924.05 491.436C2947.53 495.783 3004.78 506.651 3031.93 545.775C3050.28 572.583 3045.15 603.735 3044.41 611.707C3043.68 618.227 3040.74 640.687 3026.8 660.247C2988.63 714.587 2900.56 709.515 2874.87 708.067C2854.32 706.615 2806.61 703.719 2771.39 672.563C2764.78 666.767 2753.04 655.899 2744.23 637.063C2734.69 618.227 2734.69 600.839 2735.42 590.695Z" fill="#FEFEFE"/>
<path d="M3101.66 242.969C3147.9 242.969 3194.14 242.969 3241.11 242.969C3269.73 361.789 3297.62 479.884 3326.24 598.706C3353.4 479.884 3380.56 361.789 3407.71 242.969C3454.68 242.969 3500.92 243.693 3547.9 243.693C3547.9 395.116 3547.9 546.54 3547.16 698.686C3517.8 698.686 3487.71 698.686 3457.62 698.686C3457.62 572.622 3456.89 446.557 3456.15 320.492C3427.53 447.282 3398.91 573.346 3370.28 700.134C3339.46 700.134 3307.9 700.134 3277.07 700.134C3248.45 574.07 3219.09 448.006 3190.46 321.941C3190.46 447.282 3189.73 573.346 3189.73 699.41C3160.38 699.41 3131.02 699.41 3101.66 699.41C3101.66 546.54 3101.66 395.116 3101.66 242.969Z" fill="#FEFEFE"/>
<path d="M3583.85 521.112C3586.79 492.132 3592.66 426.926 3646.97 385.629C3688.81 353.75 3736.51 353.75 3755.59 353.75C3776.15 353.75 3820.18 353.75 3859.08 383.455C3922.93 431.273 3922.2 517.49 3922.2 531.98C3922.2 540.674 3921.46 548.644 3920.73 552.991C3838.53 553.716 3756.33 553.716 3674.12 554.44C3674.12 564.583 3675.59 590.666 3694.68 611.678C3722.56 642.106 3775.41 647.902 3805.5 625.442C3815.04 618.198 3820.92 608.778 3824.59 601.534C3855.41 601.534 3886.24 601.534 3916.33 601.534C3914.12 610.226 3910.46 622.546 3903.12 635.586C3888.44 661.666 3868.62 675.434 3859.08 681.954C3818.71 709.486 3776.14 710.21 3758.53 710.21C3736.51 710.21 3656.51 707.314 3613.21 650.074C3597.06 629.066 3590.46 606.606 3587.52 595.738C3588.25 587.766 3580.18 559.512 3583.85 521.112ZM3831.19 497.928C3831.19 492.856 3829.72 465.325 3806.97 445.039C3787.15 426.926 3763.67 426.926 3754.86 426.926C3746.79 426.926 3726.97 426.926 3708.62 439.967C3680 459.529 3677.8 493.581 3677.06 497.928C3728.44 497.928 3779.81 497.928 3831.19 497.928Z" fill="#FEFEFE"/>
<path d="M4325.88 240C4355.96 240 4385.32 240 4415.4 240.724C4415.4 267.532 4415.4 294.338 4415.4 321.87C4385.32 321.87 4355.24 321.87 4325.88 321.87C4325.88 294.338 4325.88 267.532 4325.88 240ZM4326.6 362.443C4355.96 362.443 4386.04 362.443 4416.16 362.443C4416.16 474.018 4416.16 585.594 4416.16 697.89C4386.04 697.89 4356.68 697.89 4326.6 697.89C4326.6 585.594 4326.6 474.018 4326.6 362.443Z" fill="#FEFEFE"/>
<path d="M4174.69 658.071C4174.69 671.111 4174.69 684.879 4174.69 697.919C4204.05 697.919 4233.41 697.919 4262.05 697.919C4262.05 546.497 4262.05 395.074 4262.05 244.375C4231.93 244.375 4202.57 244.375 4172.49 244.375C4172.49 297.265 4171.77 350.879 4171.77 403.768C4165.17 394.349 4149.73 376.237 4124.05 364.644C4102.05 355.225 4082.97 355.225 4072.69 355.225C4069.73 355.225 4038.17 355.95 4009.57 370.44C3954.51 397.972 3938.36 461.729 3933.96 479.117C3915.61 550.844 3935.43 642.131 3994.88 684.155C4029.37 708.787 4069.01 709.511 4069.01 709.511C4098.37 710.235 4120.37 700.819 4126.25 698.643C4152.69 685.603 4168.09 666.767 4174.69 658.071ZM4035.97 464.627C4046.25 447.963 4066.09 432.749 4091.01 430.575C4094.69 430.575 4118.17 428.401 4140.21 442.892C4173.97 466.076 4174.69 510.996 4175.45 528.384C4175.45 539.252 4176.89 595.763 4138.01 621.847C4122.57 631.987 4106.45 634.163 4103.49 634.163C4099.85 634.163 4074.13 636.335 4053.61 620.395C4029.37 602.283 4026.45 573.303 4023.49 547.221C4022.77 540.701 4021.29 523.313 4024.97 501.577C4027.17 486.362 4028.65 476.219 4035.97 464.627Z" fill="#FEFEFE"/>
<path d="M4684.04 700.034C4681.84 697.138 4679.64 692.79 4678.16 688.442C4674.48 678.298 4674.48 669.606 4675.24 663.81C4669.36 670.33 4659.8 678.298 4647.32 686.27C4637.08 692.79 4612.84 708.73 4580.56 711.626C4547.52 714.526 4498.36 704.382 4474.88 666.706C4460.2 643.522 4460.92 619.614 4460.92 608.022C4460.92 597.878 4461.64 571.07 4477.8 548.611C4504.24 511.661 4562.92 497.171 4604.04 496.446C4623.12 496.446 4648.8 498.62 4664.24 481.956C4670.08 476.16 4672.28 468.915 4673.76 464.568C4673.04 458.772 4669.36 445.006 4656.88 435.587C4646.6 427.618 4634.88 428.342 4618.72 428.342C4600.36 429.067 4585.68 429.067 4573.2 439.21C4560 450.077 4556.32 466.017 4555.6 473.262C4526.96 473.262 4497.6 473.262 4469 473.987C4469 460.945 4471.2 427.618 4495.4 400.086C4506.44 387.045 4518.88 379.8 4526.24 375.453C4565.12 352.993 4605.52 354.442 4630.44 356.615C4654.68 358.065 4706.04 359.513 4736.88 392.117C4740.56 396.464 4750.08 406.607 4755.96 423.271C4759.64 434.863 4760.36 445.006 4761.12 466.017C4761.12 476.16 4761.12 489.926 4760.36 506.589C4761.12 560.203 4762.56 613.818 4763.32 666.706C4763.32 668.882 4764.76 673.95 4768.44 679.746C4772.84 684.818 4777.24 686.994 4779.44 687.718C4779.44 692.066 4779.44 695.686 4779.44 700.034C4747.88 699.31 4716.32 699.31 4684.04 700.034ZM4673.04 537.019C4670.84 538.468 4667.16 541.366 4662 544.264C4640.72 555.132 4627.52 551.509 4596.68 558.755C4581.28 562.377 4573.2 564.551 4565.88 570.346C4550.44 583.386 4549.72 602.95 4549.72 604.398C4549.72 607.298 4549 625.41 4562.92 638.45C4582 656.562 4612.84 646.422 4621.64 643.522C4627.52 641.35 4653.2 632.654 4664.96 609.47C4670.08 600.05 4671.56 588.458 4672.28 584.838C4672.28 582.662 4673.04 577.59 4673.76 561.653C4673.76 551.509 4673.76 542.815 4673.04 537.019Z" fill="#FEFEFE"/>
</svg>
