<svg width="70" height="42" viewBox="0 0 70 42" fill="none" xmlns="http://www.w3.org/2000/svg">
<g clip-path="url(#clip0_5759_67315)">
<path d="M35.8451 17.3897C35.8058 20.3983 38.6083 22.0771 40.7194 23.0753C42.8883 24.0994 43.6169 24.7562 43.6083 25.6722C43.5921 27.0738 41.8782 27.6924 40.2743 27.7165C37.4762 27.7585 35.8492 26.9834 34.5558 26.3972L33.5478 30.974C34.8455 31.5543 37.2484 32.0603 39.7402 32.0825C45.5893 32.0825 49.4159 29.2809 49.4367 24.937C49.4595 19.4241 41.5782 19.1189 41.6321 16.6548C41.6507 15.9076 42.3854 15.1103 43.9954 14.9076C44.7924 14.8052 46.9923 14.7268 49.4865 15.8413L50.4654 11.4131C49.1241 10.9392 47.4002 10.4854 45.2538 10.4854C39.7485 10.4854 35.8764 13.3252 35.8451 17.3897ZM59.8719 10.8668C58.8039 10.8668 57.9038 11.4713 57.5021 12.399L49.147 31.7573H54.9918L56.1549 28.6382H63.2971L63.9718 31.7573H69.1234L64.628 10.8668L59.8719 10.8668ZM60.6896 16.5101L62.3764 24.3547H57.7568L60.6896 16.5101ZM28.7586 10.867L24.1514 31.757H29.7211L34.3261 10.8665L28.7586 10.867ZM20.5192 10.867L14.722 25.0857L12.377 12.9957C12.1018 11.6461 11.0152 10.8668 9.80849 10.8668H0.331952L0.199219 11.4734C2.14471 11.8831 4.35513 12.5438 5.69431 13.2507C6.51386 13.6826 6.74755 14.0601 7.01679 15.0863L11.4584 31.7573H17.3441L26.3678 10.8668L20.5192 10.867Z" fill="#1B1F28"/>
</g>
<defs>
<clipPath id="clip0_5759_67315">
<rect width="68.9242" height="41.1127" fill="white" transform="translate(0.199219 0.857422)"/>
</clipPath>
</defs>
</svg>
