<svg width="126" height="77" viewBox="0 0 126 77" fill="none" xmlns="http://www.w3.org/2000/svg">
<g clip-path="url(#clip0_4993_48053)">
<path d="M45.6641 8.20508H79.5111V68.4921H45.6641V8.20508Z" fill="#FF5F00"/>
<path d="M47.8161 38.3452C47.8161 26.0962 53.6183 15.2315 62.5365 8.2014C55.9825 3.08881 47.7089 0 38.683 0C17.2994 0 0 17.1486 0 38.3452C0 59.5413 17.2994 76.6903 38.6826 76.6903C47.7084 76.6903 55.982 73.6015 62.5365 68.4885C53.6183 61.5651 47.8161 50.5941 47.8161 38.3452Z" fill="#EB001B"/>
<path d="M125.178 38.3452C125.178 59.5413 107.879 76.6903 86.4956 76.6903C77.4697 76.6903 69.1961 73.6015 62.6416 68.4885C71.6675 61.4588 77.3625 50.5941 77.3625 38.3452C77.3625 26.0962 71.5598 15.2315 62.6416 8.2014C69.1956 3.08881 77.4697 0 86.4956 0C107.879 0 125.178 17.2553 125.178 38.3452Z" fill="#F79E1B"/>
</g>
<defs>
<clipPath id="clip0_4993_48053">
<rect width="125.305" height="77" fill="white"/>
</clipPath>
</defs>
</svg>
